G04 #@! TF.GenerationSoftware,KiCad,Pcbnew,(5.1.0-0)*
G04 #@! TF.CreationDate,2019-05-12T09:59:49-07:00*
G04 #@! TF.ProjectId,shitty_pixel,73686974-7479-45f7-9069-78656c2e6b69,rev?*
G04 #@! TF.SameCoordinates,Original*
G04 #@! TF.FileFunction,Profile,NP*
%FSLAX46Y46*%
G04 Gerber Fmt 4.6, Leading zero omitted, Abs format (unit mm)*
G04 Created by KiCad (PCBNEW (5.1.0-0)) date 2019-05-12 09:59:49*
%MOMM*%
%LPD*%
G04 APERTURE LIST*
%ADD10C,0.100000*%
G04 APERTURE END LIST*
D10*
X132457051Y-72597966D02*
X132387071Y-72605368D01*
X132387071Y-72605368D02*
X132321985Y-72626606D01*
X132321985Y-72626606D02*
X132263160Y-72660229D01*
X132263160Y-72660229D02*
X132211964Y-72704785D01*
X132211964Y-72704785D02*
X132169764Y-72758824D01*
X132169764Y-72758824D02*
X132137928Y-72820893D01*
X132137928Y-72820893D02*
X132117825Y-72889542D01*
X132117825Y-72889542D02*
X132110815Y-72963318D01*
X132110815Y-72963318D02*
X132110815Y-75156466D01*
X132110815Y-75156466D02*
X128170491Y-75156466D01*
X128170491Y-75156466D02*
X128100460Y-75163486D01*
X128100460Y-75163486D02*
X128035302Y-75183639D01*
X128035302Y-75183639D02*
X127976393Y-75215545D01*
X127976393Y-75215545D02*
X127925109Y-75257828D01*
X127925109Y-75257828D02*
X127882826Y-75309112D01*
X127882826Y-75309112D02*
X127850920Y-75368021D01*
X127850920Y-75368021D02*
X127830767Y-75433179D01*
X127830767Y-75433179D02*
X127823747Y-75503210D01*
X127823747Y-75503210D02*
X127823747Y-119118124D01*
X127823747Y-119118124D02*
X127830767Y-119188134D01*
X127830767Y-119188134D02*
X127850920Y-119253234D01*
X127850920Y-119253234D02*
X127882826Y-119312064D01*
X127882826Y-119312064D02*
X127925109Y-119363254D01*
X127925109Y-119363254D02*
X127976393Y-119405444D01*
X127976393Y-119405444D02*
X128035302Y-119437264D01*
X128035302Y-119437264D02*
X128100460Y-119457374D01*
X128100460Y-119457374D02*
X128170491Y-119464374D01*
X128170491Y-119464374D02*
X132063276Y-119464374D01*
X132063276Y-119464374D02*
X132063276Y-121601194D01*
X132063276Y-121601194D02*
X132070306Y-121674944D01*
X132070306Y-121674944D02*
X132090470Y-121743534D01*
X132090470Y-121743534D02*
X132122389Y-121805524D01*
X132122389Y-121805524D02*
X132164684Y-121859464D01*
X132164684Y-121859464D02*
X132215975Y-121903924D01*
X132215975Y-121903924D02*
X132274883Y-121937464D01*
X132274883Y-121937464D02*
X132340027Y-121958634D01*
X132340027Y-121958634D02*
X132410029Y-121966034D01*
X132410029Y-121966034D02*
X138691817Y-121966034D01*
X138691817Y-121966034D02*
X138761817Y-121958634D01*
X138761817Y-121958634D02*
X138826967Y-121937464D01*
X138826967Y-121937464D02*
X138885877Y-121903924D01*
X138885877Y-121903924D02*
X138937167Y-121859464D01*
X138937167Y-121859464D02*
X138979457Y-121805524D01*
X138979457Y-121805524D02*
X139011377Y-121743534D01*
X139011377Y-121743534D02*
X139031537Y-121674944D01*
X139031537Y-121674944D02*
X139038537Y-121601194D01*
X139038537Y-121601194D02*
X139038537Y-119464374D01*
X139038537Y-119464374D02*
X160414491Y-119464374D01*
X160414491Y-119464374D02*
X160414491Y-121601194D01*
X160414491Y-121601194D02*
X160421491Y-121674944D01*
X160421491Y-121674944D02*
X160441601Y-121743534D01*
X160441601Y-121743534D02*
X160473441Y-121805524D01*
X160473441Y-121805524D02*
X160515641Y-121859464D01*
X160515641Y-121859464D02*
X160566831Y-121903924D01*
X160566831Y-121903924D02*
X160625661Y-121937464D01*
X160625661Y-121937464D02*
X160690751Y-121958634D01*
X160690751Y-121958634D02*
X160760731Y-121966034D01*
X160760731Y-121966034D02*
X167043034Y-121966034D01*
X167043034Y-121966034D02*
X167113014Y-121958634D01*
X167113014Y-121958634D02*
X167178094Y-121937464D01*
X167178094Y-121937464D02*
X167236914Y-121903924D01*
X167236914Y-121903924D02*
X167288114Y-121859464D01*
X167288114Y-121859464D02*
X167330314Y-121805524D01*
X167330314Y-121805524D02*
X167362154Y-121743534D01*
X167362154Y-121743534D02*
X167382264Y-121674944D01*
X167382264Y-121674944D02*
X167389264Y-121601194D01*
X167389264Y-121601194D02*
X167389264Y-119464374D01*
X167389264Y-119464374D02*
X172311445Y-119464374D01*
X172311445Y-119464374D02*
X172381475Y-119457374D01*
X172381475Y-119457374D02*
X172446635Y-119437264D01*
X172446635Y-119437264D02*
X172505545Y-119405444D01*
X172505545Y-119405444D02*
X172556835Y-119363254D01*
X172556835Y-119363254D02*
X172599115Y-119312064D01*
X172599115Y-119312064D02*
X172631025Y-119253234D01*
X172631025Y-119253234D02*
X172651185Y-119188134D01*
X172651185Y-119188134D02*
X172658185Y-119118124D01*
X172658185Y-119118124D02*
X172658185Y-75503215D01*
X172658185Y-75503215D02*
X172651185Y-75433184D01*
X172651185Y-75433184D02*
X172631025Y-75368026D01*
X172631025Y-75368026D02*
X172599115Y-75309117D01*
X172599115Y-75309117D02*
X172556835Y-75257833D01*
X172556835Y-75257833D02*
X172505545Y-75215550D01*
X172505545Y-75215550D02*
X172446635Y-75183644D01*
X172446635Y-75183644D02*
X172381475Y-75163491D01*
X172381475Y-75163491D02*
X172311445Y-75156471D01*
X172311445Y-75156471D02*
X167374299Y-75156471D01*
X167374299Y-75156471D02*
X167374299Y-73056853D01*
X167374299Y-73056853D02*
X167367299Y-72983076D01*
X167367299Y-72983076D02*
X167347189Y-72914427D01*
X167347189Y-72914427D02*
X167315349Y-72852358D01*
X167315349Y-72852358D02*
X167273149Y-72798320D01*
X167273149Y-72798320D02*
X167221949Y-72753763D01*
X167221949Y-72753763D02*
X167163129Y-72720140D01*
X167163129Y-72720140D02*
X167098039Y-72698902D01*
X167098039Y-72698902D02*
X167028059Y-72691500D01*
X167028059Y-72691500D02*
X160745755Y-72691500D01*
X160745755Y-72691500D02*
X160675775Y-72698902D01*
X160675775Y-72698902D02*
X160610685Y-72720140D01*
X160610685Y-72720140D02*
X160551865Y-72753763D01*
X160551865Y-72753763D02*
X160500665Y-72798320D01*
X160500665Y-72798320D02*
X160458465Y-72852358D01*
X160458465Y-72852358D02*
X160426625Y-72914427D01*
X160426625Y-72914427D02*
X160406515Y-72983076D01*
X160406515Y-72983076D02*
X160399515Y-73056853D01*
X160399515Y-73056853D02*
X160399515Y-75156466D01*
X160399515Y-75156466D02*
X139085587Y-75156466D01*
X139085587Y-75156466D02*
X139085587Y-72963318D01*
X139085587Y-72963318D02*
X139078587Y-72889542D01*
X139078587Y-72889542D02*
X139058487Y-72820893D01*
X139058487Y-72820893D02*
X139026647Y-72758824D01*
X139026647Y-72758824D02*
X138984447Y-72704785D01*
X138984447Y-72704785D02*
X138933247Y-72660229D01*
X138933247Y-72660229D02*
X138874417Y-72626606D01*
X138874417Y-72626606D02*
X138809327Y-72605368D01*
X138809327Y-72605368D02*
X138739347Y-72597966D01*
X138739347Y-72597966D02*
X132457051Y-72597966D01*
X132457051Y-72597966D02*
X132457051Y-72597966D01*
M02*
