G04 #@! TF.GenerationSoftware,KiCad,Pcbnew,(5.1.0-0)*
G04 #@! TF.CreationDate,2019-05-12T09:59:49-07:00*
G04 #@! TF.ProjectId,shitty_pixel,73686974-7479-45f7-9069-78656c2e6b69,rev?*
G04 #@! TF.SameCoordinates,Original*
G04 #@! TF.FileFunction,Copper,L2,Bot*
G04 #@! TF.FilePolarity,Positive*
%FSLAX46Y46*%
G04 Gerber Fmt 4.6, Leading zero omitted, Abs format (unit mm)*
G04 Created by KiCad (PCBNEW (5.1.0-0)) date 2019-05-12 09:59:49*
%MOMM*%
%LPD*%
G04 APERTURE LIST*
%ADD10O,1.600000X1.600000*%
%ADD11R,1.600000X1.600000*%
%ADD12C,0.100000*%
%ADD13C,1.425000*%
%ADD14R,1.900000X0.800000*%
%ADD15R,1.550000X0.600000*%
%ADD16R,1.700000X0.650000*%
%ADD17R,1.500000X2.700000*%
%ADD18C,1.727200*%
%ADD19O,1.727200X1.727200*%
%ADD20R,1.727200X1.727200*%
%ADD21C,0.250000*%
%ADD22C,0.254000*%
G04 APERTURE END LIST*
D10*
X138176000Y-80264000D03*
D11*
X138176000Y-82804000D03*
D10*
X135636000Y-80264000D03*
X135636000Y-82804000D03*
X133096000Y-80264000D03*
X133096000Y-82804000D03*
D12*
G36*
X141619504Y-91527204D02*
G01*
X141643773Y-91530804D01*
X141667571Y-91536765D01*
X141690671Y-91545030D01*
X141712849Y-91555520D01*
X141733893Y-91568133D01*
X141753598Y-91582747D01*
X141771777Y-91599223D01*
X141788253Y-91617402D01*
X141802867Y-91637107D01*
X141815480Y-91658151D01*
X141825970Y-91680329D01*
X141834235Y-91703429D01*
X141840196Y-91727227D01*
X141843796Y-91751496D01*
X141845000Y-91776000D01*
X141845000Y-92701000D01*
X141843796Y-92725504D01*
X141840196Y-92749773D01*
X141834235Y-92773571D01*
X141825970Y-92796671D01*
X141815480Y-92818849D01*
X141802867Y-92839893D01*
X141788253Y-92859598D01*
X141771777Y-92877777D01*
X141753598Y-92894253D01*
X141733893Y-92908867D01*
X141712849Y-92921480D01*
X141690671Y-92931970D01*
X141667571Y-92940235D01*
X141643773Y-92946196D01*
X141619504Y-92949796D01*
X141595000Y-92951000D01*
X140345000Y-92951000D01*
X140320496Y-92949796D01*
X140296227Y-92946196D01*
X140272429Y-92940235D01*
X140249329Y-92931970D01*
X140227151Y-92921480D01*
X140206107Y-92908867D01*
X140186402Y-92894253D01*
X140168223Y-92877777D01*
X140151747Y-92859598D01*
X140137133Y-92839893D01*
X140124520Y-92818849D01*
X140114030Y-92796671D01*
X140105765Y-92773571D01*
X140099804Y-92749773D01*
X140096204Y-92725504D01*
X140095000Y-92701000D01*
X140095000Y-91776000D01*
X140096204Y-91751496D01*
X140099804Y-91727227D01*
X140105765Y-91703429D01*
X140114030Y-91680329D01*
X140124520Y-91658151D01*
X140137133Y-91637107D01*
X140151747Y-91617402D01*
X140168223Y-91599223D01*
X140186402Y-91582747D01*
X140206107Y-91568133D01*
X140227151Y-91555520D01*
X140249329Y-91545030D01*
X140272429Y-91536765D01*
X140296227Y-91530804D01*
X140320496Y-91527204D01*
X140345000Y-91526000D01*
X141595000Y-91526000D01*
X141619504Y-91527204D01*
X141619504Y-91527204D01*
G37*
D13*
X140970000Y-92238500D03*
D12*
G36*
X141619504Y-94502204D02*
G01*
X141643773Y-94505804D01*
X141667571Y-94511765D01*
X141690671Y-94520030D01*
X141712849Y-94530520D01*
X141733893Y-94543133D01*
X141753598Y-94557747D01*
X141771777Y-94574223D01*
X141788253Y-94592402D01*
X141802867Y-94612107D01*
X141815480Y-94633151D01*
X141825970Y-94655329D01*
X141834235Y-94678429D01*
X141840196Y-94702227D01*
X141843796Y-94726496D01*
X141845000Y-94751000D01*
X141845000Y-95676000D01*
X141843796Y-95700504D01*
X141840196Y-95724773D01*
X141834235Y-95748571D01*
X141825970Y-95771671D01*
X141815480Y-95793849D01*
X141802867Y-95814893D01*
X141788253Y-95834598D01*
X141771777Y-95852777D01*
X141753598Y-95869253D01*
X141733893Y-95883867D01*
X141712849Y-95896480D01*
X141690671Y-95906970D01*
X141667571Y-95915235D01*
X141643773Y-95921196D01*
X141619504Y-95924796D01*
X141595000Y-95926000D01*
X140345000Y-95926000D01*
X140320496Y-95924796D01*
X140296227Y-95921196D01*
X140272429Y-95915235D01*
X140249329Y-95906970D01*
X140227151Y-95896480D01*
X140206107Y-95883867D01*
X140186402Y-95869253D01*
X140168223Y-95852777D01*
X140151747Y-95834598D01*
X140137133Y-95814893D01*
X140124520Y-95793849D01*
X140114030Y-95771671D01*
X140105765Y-95748571D01*
X140099804Y-95724773D01*
X140096204Y-95700504D01*
X140095000Y-95676000D01*
X140095000Y-94751000D01*
X140096204Y-94726496D01*
X140099804Y-94702227D01*
X140105765Y-94678429D01*
X140114030Y-94655329D01*
X140124520Y-94633151D01*
X140137133Y-94612107D01*
X140151747Y-94592402D01*
X140168223Y-94574223D01*
X140186402Y-94557747D01*
X140206107Y-94543133D01*
X140227151Y-94530520D01*
X140249329Y-94520030D01*
X140272429Y-94511765D01*
X140296227Y-94505804D01*
X140320496Y-94502204D01*
X140345000Y-94501000D01*
X141595000Y-94501000D01*
X141619504Y-94502204D01*
X141619504Y-94502204D01*
G37*
D13*
X140970000Y-95213500D03*
D12*
G36*
X143905504Y-109742204D02*
G01*
X143929773Y-109745804D01*
X143953571Y-109751765D01*
X143976671Y-109760030D01*
X143998849Y-109770520D01*
X144019893Y-109783133D01*
X144039598Y-109797747D01*
X144057777Y-109814223D01*
X144074253Y-109832402D01*
X144088867Y-109852107D01*
X144101480Y-109873151D01*
X144111970Y-109895329D01*
X144120235Y-109918429D01*
X144126196Y-109942227D01*
X144129796Y-109966496D01*
X144131000Y-109991000D01*
X144131000Y-110916000D01*
X144129796Y-110940504D01*
X144126196Y-110964773D01*
X144120235Y-110988571D01*
X144111970Y-111011671D01*
X144101480Y-111033849D01*
X144088867Y-111054893D01*
X144074253Y-111074598D01*
X144057777Y-111092777D01*
X144039598Y-111109253D01*
X144019893Y-111123867D01*
X143998849Y-111136480D01*
X143976671Y-111146970D01*
X143953571Y-111155235D01*
X143929773Y-111161196D01*
X143905504Y-111164796D01*
X143881000Y-111166000D01*
X142631000Y-111166000D01*
X142606496Y-111164796D01*
X142582227Y-111161196D01*
X142558429Y-111155235D01*
X142535329Y-111146970D01*
X142513151Y-111136480D01*
X142492107Y-111123867D01*
X142472402Y-111109253D01*
X142454223Y-111092777D01*
X142437747Y-111074598D01*
X142423133Y-111054893D01*
X142410520Y-111033849D01*
X142400030Y-111011671D01*
X142391765Y-110988571D01*
X142385804Y-110964773D01*
X142382204Y-110940504D01*
X142381000Y-110916000D01*
X142381000Y-109991000D01*
X142382204Y-109966496D01*
X142385804Y-109942227D01*
X142391765Y-109918429D01*
X142400030Y-109895329D01*
X142410520Y-109873151D01*
X142423133Y-109852107D01*
X142437747Y-109832402D01*
X142454223Y-109814223D01*
X142472402Y-109797747D01*
X142492107Y-109783133D01*
X142513151Y-109770520D01*
X142535329Y-109760030D01*
X142558429Y-109751765D01*
X142582227Y-109745804D01*
X142606496Y-109742204D01*
X142631000Y-109741000D01*
X143881000Y-109741000D01*
X143905504Y-109742204D01*
X143905504Y-109742204D01*
G37*
D13*
X143256000Y-110453500D03*
D12*
G36*
X143905504Y-106767204D02*
G01*
X143929773Y-106770804D01*
X143953571Y-106776765D01*
X143976671Y-106785030D01*
X143998849Y-106795520D01*
X144019893Y-106808133D01*
X144039598Y-106822747D01*
X144057777Y-106839223D01*
X144074253Y-106857402D01*
X144088867Y-106877107D01*
X144101480Y-106898151D01*
X144111970Y-106920329D01*
X144120235Y-106943429D01*
X144126196Y-106967227D01*
X144129796Y-106991496D01*
X144131000Y-107016000D01*
X144131000Y-107941000D01*
X144129796Y-107965504D01*
X144126196Y-107989773D01*
X144120235Y-108013571D01*
X144111970Y-108036671D01*
X144101480Y-108058849D01*
X144088867Y-108079893D01*
X144074253Y-108099598D01*
X144057777Y-108117777D01*
X144039598Y-108134253D01*
X144019893Y-108148867D01*
X143998849Y-108161480D01*
X143976671Y-108171970D01*
X143953571Y-108180235D01*
X143929773Y-108186196D01*
X143905504Y-108189796D01*
X143881000Y-108191000D01*
X142631000Y-108191000D01*
X142606496Y-108189796D01*
X142582227Y-108186196D01*
X142558429Y-108180235D01*
X142535329Y-108171970D01*
X142513151Y-108161480D01*
X142492107Y-108148867D01*
X142472402Y-108134253D01*
X142454223Y-108117777D01*
X142437747Y-108099598D01*
X142423133Y-108079893D01*
X142410520Y-108058849D01*
X142400030Y-108036671D01*
X142391765Y-108013571D01*
X142385804Y-107989773D01*
X142382204Y-107965504D01*
X142381000Y-107941000D01*
X142381000Y-107016000D01*
X142382204Y-106991496D01*
X142385804Y-106967227D01*
X142391765Y-106943429D01*
X142400030Y-106920329D01*
X142410520Y-106898151D01*
X142423133Y-106877107D01*
X142437747Y-106857402D01*
X142454223Y-106839223D01*
X142472402Y-106822747D01*
X142492107Y-106808133D01*
X142513151Y-106795520D01*
X142535329Y-106785030D01*
X142558429Y-106776765D01*
X142582227Y-106770804D01*
X142606496Y-106767204D01*
X142631000Y-106766000D01*
X143881000Y-106766000D01*
X143905504Y-106767204D01*
X143905504Y-106767204D01*
G37*
D13*
X143256000Y-107478500D03*
D12*
G36*
X134507504Y-109742204D02*
G01*
X134531773Y-109745804D01*
X134555571Y-109751765D01*
X134578671Y-109760030D01*
X134600849Y-109770520D01*
X134621893Y-109783133D01*
X134641598Y-109797747D01*
X134659777Y-109814223D01*
X134676253Y-109832402D01*
X134690867Y-109852107D01*
X134703480Y-109873151D01*
X134713970Y-109895329D01*
X134722235Y-109918429D01*
X134728196Y-109942227D01*
X134731796Y-109966496D01*
X134733000Y-109991000D01*
X134733000Y-110916000D01*
X134731796Y-110940504D01*
X134728196Y-110964773D01*
X134722235Y-110988571D01*
X134713970Y-111011671D01*
X134703480Y-111033849D01*
X134690867Y-111054893D01*
X134676253Y-111074598D01*
X134659777Y-111092777D01*
X134641598Y-111109253D01*
X134621893Y-111123867D01*
X134600849Y-111136480D01*
X134578671Y-111146970D01*
X134555571Y-111155235D01*
X134531773Y-111161196D01*
X134507504Y-111164796D01*
X134483000Y-111166000D01*
X133233000Y-111166000D01*
X133208496Y-111164796D01*
X133184227Y-111161196D01*
X133160429Y-111155235D01*
X133137329Y-111146970D01*
X133115151Y-111136480D01*
X133094107Y-111123867D01*
X133074402Y-111109253D01*
X133056223Y-111092777D01*
X133039747Y-111074598D01*
X133025133Y-111054893D01*
X133012520Y-111033849D01*
X133002030Y-111011671D01*
X132993765Y-110988571D01*
X132987804Y-110964773D01*
X132984204Y-110940504D01*
X132983000Y-110916000D01*
X132983000Y-109991000D01*
X132984204Y-109966496D01*
X132987804Y-109942227D01*
X132993765Y-109918429D01*
X133002030Y-109895329D01*
X133012520Y-109873151D01*
X133025133Y-109852107D01*
X133039747Y-109832402D01*
X133056223Y-109814223D01*
X133074402Y-109797747D01*
X133094107Y-109783133D01*
X133115151Y-109770520D01*
X133137329Y-109760030D01*
X133160429Y-109751765D01*
X133184227Y-109745804D01*
X133208496Y-109742204D01*
X133233000Y-109741000D01*
X134483000Y-109741000D01*
X134507504Y-109742204D01*
X134507504Y-109742204D01*
G37*
D13*
X133858000Y-110453500D03*
D12*
G36*
X134507504Y-106767204D02*
G01*
X134531773Y-106770804D01*
X134555571Y-106776765D01*
X134578671Y-106785030D01*
X134600849Y-106795520D01*
X134621893Y-106808133D01*
X134641598Y-106822747D01*
X134659777Y-106839223D01*
X134676253Y-106857402D01*
X134690867Y-106877107D01*
X134703480Y-106898151D01*
X134713970Y-106920329D01*
X134722235Y-106943429D01*
X134728196Y-106967227D01*
X134731796Y-106991496D01*
X134733000Y-107016000D01*
X134733000Y-107941000D01*
X134731796Y-107965504D01*
X134728196Y-107989773D01*
X134722235Y-108013571D01*
X134713970Y-108036671D01*
X134703480Y-108058849D01*
X134690867Y-108079893D01*
X134676253Y-108099598D01*
X134659777Y-108117777D01*
X134641598Y-108134253D01*
X134621893Y-108148867D01*
X134600849Y-108161480D01*
X134578671Y-108171970D01*
X134555571Y-108180235D01*
X134531773Y-108186196D01*
X134507504Y-108189796D01*
X134483000Y-108191000D01*
X133233000Y-108191000D01*
X133208496Y-108189796D01*
X133184227Y-108186196D01*
X133160429Y-108180235D01*
X133137329Y-108171970D01*
X133115151Y-108161480D01*
X133094107Y-108148867D01*
X133074402Y-108134253D01*
X133056223Y-108117777D01*
X133039747Y-108099598D01*
X133025133Y-108079893D01*
X133012520Y-108058849D01*
X133002030Y-108036671D01*
X132993765Y-108013571D01*
X132987804Y-107989773D01*
X132984204Y-107965504D01*
X132983000Y-107941000D01*
X132983000Y-107016000D01*
X132984204Y-106991496D01*
X132987804Y-106967227D01*
X132993765Y-106943429D01*
X133002030Y-106920329D01*
X133012520Y-106898151D01*
X133025133Y-106877107D01*
X133039747Y-106857402D01*
X133056223Y-106839223D01*
X133074402Y-106822747D01*
X133094107Y-106808133D01*
X133115151Y-106795520D01*
X133137329Y-106785030D01*
X133160429Y-106776765D01*
X133184227Y-106770804D01*
X133208496Y-106767204D01*
X133233000Y-106766000D01*
X134483000Y-106766000D01*
X134507504Y-106767204D01*
X134507504Y-106767204D01*
G37*
D13*
X133858000Y-107478500D03*
D14*
X140438000Y-108966000D03*
X137438000Y-108016000D03*
X137438000Y-109916000D03*
D12*
G36*
X142472504Y-86502204D02*
G01*
X142496773Y-86505804D01*
X142520571Y-86511765D01*
X142543671Y-86520030D01*
X142565849Y-86530520D01*
X142586893Y-86543133D01*
X142606598Y-86557747D01*
X142624777Y-86574223D01*
X142641253Y-86592402D01*
X142655867Y-86612107D01*
X142668480Y-86633151D01*
X142678970Y-86655329D01*
X142687235Y-86678429D01*
X142693196Y-86702227D01*
X142696796Y-86726496D01*
X142698000Y-86751000D01*
X142698000Y-88001000D01*
X142696796Y-88025504D01*
X142693196Y-88049773D01*
X142687235Y-88073571D01*
X142678970Y-88096671D01*
X142668480Y-88118849D01*
X142655867Y-88139893D01*
X142641253Y-88159598D01*
X142624777Y-88177777D01*
X142606598Y-88194253D01*
X142586893Y-88208867D01*
X142565849Y-88221480D01*
X142543671Y-88231970D01*
X142520571Y-88240235D01*
X142496773Y-88246196D01*
X142472504Y-88249796D01*
X142448000Y-88251000D01*
X141523000Y-88251000D01*
X141498496Y-88249796D01*
X141474227Y-88246196D01*
X141450429Y-88240235D01*
X141427329Y-88231970D01*
X141405151Y-88221480D01*
X141384107Y-88208867D01*
X141364402Y-88194253D01*
X141346223Y-88177777D01*
X141329747Y-88159598D01*
X141315133Y-88139893D01*
X141302520Y-88118849D01*
X141292030Y-88096671D01*
X141283765Y-88073571D01*
X141277804Y-88049773D01*
X141274204Y-88025504D01*
X141273000Y-88001000D01*
X141273000Y-86751000D01*
X141274204Y-86726496D01*
X141277804Y-86702227D01*
X141283765Y-86678429D01*
X141292030Y-86655329D01*
X141302520Y-86633151D01*
X141315133Y-86612107D01*
X141329747Y-86592402D01*
X141346223Y-86574223D01*
X141364402Y-86557747D01*
X141384107Y-86543133D01*
X141405151Y-86530520D01*
X141427329Y-86520030D01*
X141450429Y-86511765D01*
X141474227Y-86505804D01*
X141498496Y-86502204D01*
X141523000Y-86501000D01*
X142448000Y-86501000D01*
X142472504Y-86502204D01*
X142472504Y-86502204D01*
G37*
D13*
X141985500Y-87376000D03*
D12*
G36*
X139497504Y-86502204D02*
G01*
X139521773Y-86505804D01*
X139545571Y-86511765D01*
X139568671Y-86520030D01*
X139590849Y-86530520D01*
X139611893Y-86543133D01*
X139631598Y-86557747D01*
X139649777Y-86574223D01*
X139666253Y-86592402D01*
X139680867Y-86612107D01*
X139693480Y-86633151D01*
X139703970Y-86655329D01*
X139712235Y-86678429D01*
X139718196Y-86702227D01*
X139721796Y-86726496D01*
X139723000Y-86751000D01*
X139723000Y-88001000D01*
X139721796Y-88025504D01*
X139718196Y-88049773D01*
X139712235Y-88073571D01*
X139703970Y-88096671D01*
X139693480Y-88118849D01*
X139680867Y-88139893D01*
X139666253Y-88159598D01*
X139649777Y-88177777D01*
X139631598Y-88194253D01*
X139611893Y-88208867D01*
X139590849Y-88221480D01*
X139568671Y-88231970D01*
X139545571Y-88240235D01*
X139521773Y-88246196D01*
X139497504Y-88249796D01*
X139473000Y-88251000D01*
X138548000Y-88251000D01*
X138523496Y-88249796D01*
X138499227Y-88246196D01*
X138475429Y-88240235D01*
X138452329Y-88231970D01*
X138430151Y-88221480D01*
X138409107Y-88208867D01*
X138389402Y-88194253D01*
X138371223Y-88177777D01*
X138354747Y-88159598D01*
X138340133Y-88139893D01*
X138327520Y-88118849D01*
X138317030Y-88096671D01*
X138308765Y-88073571D01*
X138302804Y-88049773D01*
X138299204Y-88025504D01*
X138298000Y-88001000D01*
X138298000Y-86751000D01*
X138299204Y-86726496D01*
X138302804Y-86702227D01*
X138308765Y-86678429D01*
X138317030Y-86655329D01*
X138327520Y-86633151D01*
X138340133Y-86612107D01*
X138354747Y-86592402D01*
X138371223Y-86574223D01*
X138389402Y-86557747D01*
X138409107Y-86543133D01*
X138430151Y-86530520D01*
X138452329Y-86520030D01*
X138475429Y-86511765D01*
X138499227Y-86505804D01*
X138523496Y-86502204D01*
X138548000Y-86501000D01*
X139473000Y-86501000D01*
X139497504Y-86502204D01*
X139497504Y-86502204D01*
G37*
D13*
X139010500Y-87376000D03*
D15*
X152466000Y-111506000D03*
X152466000Y-110236000D03*
X152466000Y-108966000D03*
X152466000Y-107696000D03*
X147066000Y-107696000D03*
X147066000Y-108966000D03*
X147066000Y-110236000D03*
X147066000Y-111506000D03*
D12*
G36*
X157713504Y-95138204D02*
G01*
X157737773Y-95141804D01*
X157761571Y-95147765D01*
X157784671Y-95156030D01*
X157806849Y-95166520D01*
X157827893Y-95179133D01*
X157847598Y-95193747D01*
X157865777Y-95210223D01*
X157882253Y-95228402D01*
X157896867Y-95248107D01*
X157909480Y-95269151D01*
X157919970Y-95291329D01*
X157928235Y-95314429D01*
X157934196Y-95338227D01*
X157937796Y-95362496D01*
X157939000Y-95387000D01*
X157939000Y-96637000D01*
X157937796Y-96661504D01*
X157934196Y-96685773D01*
X157928235Y-96709571D01*
X157919970Y-96732671D01*
X157909480Y-96754849D01*
X157896867Y-96775893D01*
X157882253Y-96795598D01*
X157865777Y-96813777D01*
X157847598Y-96830253D01*
X157827893Y-96844867D01*
X157806849Y-96857480D01*
X157784671Y-96867970D01*
X157761571Y-96876235D01*
X157737773Y-96882196D01*
X157713504Y-96885796D01*
X157689000Y-96887000D01*
X156764000Y-96887000D01*
X156739496Y-96885796D01*
X156715227Y-96882196D01*
X156691429Y-96876235D01*
X156668329Y-96867970D01*
X156646151Y-96857480D01*
X156625107Y-96844867D01*
X156605402Y-96830253D01*
X156587223Y-96813777D01*
X156570747Y-96795598D01*
X156556133Y-96775893D01*
X156543520Y-96754849D01*
X156533030Y-96732671D01*
X156524765Y-96709571D01*
X156518804Y-96685773D01*
X156515204Y-96661504D01*
X156514000Y-96637000D01*
X156514000Y-95387000D01*
X156515204Y-95362496D01*
X156518804Y-95338227D01*
X156524765Y-95314429D01*
X156533030Y-95291329D01*
X156543520Y-95269151D01*
X156556133Y-95248107D01*
X156570747Y-95228402D01*
X156587223Y-95210223D01*
X156605402Y-95193747D01*
X156625107Y-95179133D01*
X156646151Y-95166520D01*
X156668329Y-95156030D01*
X156691429Y-95147765D01*
X156715227Y-95141804D01*
X156739496Y-95138204D01*
X156764000Y-95137000D01*
X157689000Y-95137000D01*
X157713504Y-95138204D01*
X157713504Y-95138204D01*
G37*
D13*
X157226500Y-96012000D03*
D12*
G36*
X160688504Y-95138204D02*
G01*
X160712773Y-95141804D01*
X160736571Y-95147765D01*
X160759671Y-95156030D01*
X160781849Y-95166520D01*
X160802893Y-95179133D01*
X160822598Y-95193747D01*
X160840777Y-95210223D01*
X160857253Y-95228402D01*
X160871867Y-95248107D01*
X160884480Y-95269151D01*
X160894970Y-95291329D01*
X160903235Y-95314429D01*
X160909196Y-95338227D01*
X160912796Y-95362496D01*
X160914000Y-95387000D01*
X160914000Y-96637000D01*
X160912796Y-96661504D01*
X160909196Y-96685773D01*
X160903235Y-96709571D01*
X160894970Y-96732671D01*
X160884480Y-96754849D01*
X160871867Y-96775893D01*
X160857253Y-96795598D01*
X160840777Y-96813777D01*
X160822598Y-96830253D01*
X160802893Y-96844867D01*
X160781849Y-96857480D01*
X160759671Y-96867970D01*
X160736571Y-96876235D01*
X160712773Y-96882196D01*
X160688504Y-96885796D01*
X160664000Y-96887000D01*
X159739000Y-96887000D01*
X159714496Y-96885796D01*
X159690227Y-96882196D01*
X159666429Y-96876235D01*
X159643329Y-96867970D01*
X159621151Y-96857480D01*
X159600107Y-96844867D01*
X159580402Y-96830253D01*
X159562223Y-96813777D01*
X159545747Y-96795598D01*
X159531133Y-96775893D01*
X159518520Y-96754849D01*
X159508030Y-96732671D01*
X159499765Y-96709571D01*
X159493804Y-96685773D01*
X159490204Y-96661504D01*
X159489000Y-96637000D01*
X159489000Y-95387000D01*
X159490204Y-95362496D01*
X159493804Y-95338227D01*
X159499765Y-95314429D01*
X159508030Y-95291329D01*
X159518520Y-95269151D01*
X159531133Y-95248107D01*
X159545747Y-95228402D01*
X159562223Y-95210223D01*
X159580402Y-95193747D01*
X159600107Y-95179133D01*
X159621151Y-95166520D01*
X159643329Y-95156030D01*
X159666429Y-95147765D01*
X159690227Y-95141804D01*
X159714496Y-95138204D01*
X159739000Y-95137000D01*
X160664000Y-95137000D01*
X160688504Y-95138204D01*
X160688504Y-95138204D01*
G37*
D13*
X160201500Y-96012000D03*
D12*
G36*
X157713504Y-87518204D02*
G01*
X157737773Y-87521804D01*
X157761571Y-87527765D01*
X157784671Y-87536030D01*
X157806849Y-87546520D01*
X157827893Y-87559133D01*
X157847598Y-87573747D01*
X157865777Y-87590223D01*
X157882253Y-87608402D01*
X157896867Y-87628107D01*
X157909480Y-87649151D01*
X157919970Y-87671329D01*
X157928235Y-87694429D01*
X157934196Y-87718227D01*
X157937796Y-87742496D01*
X157939000Y-87767000D01*
X157939000Y-89017000D01*
X157937796Y-89041504D01*
X157934196Y-89065773D01*
X157928235Y-89089571D01*
X157919970Y-89112671D01*
X157909480Y-89134849D01*
X157896867Y-89155893D01*
X157882253Y-89175598D01*
X157865777Y-89193777D01*
X157847598Y-89210253D01*
X157827893Y-89224867D01*
X157806849Y-89237480D01*
X157784671Y-89247970D01*
X157761571Y-89256235D01*
X157737773Y-89262196D01*
X157713504Y-89265796D01*
X157689000Y-89267000D01*
X156764000Y-89267000D01*
X156739496Y-89265796D01*
X156715227Y-89262196D01*
X156691429Y-89256235D01*
X156668329Y-89247970D01*
X156646151Y-89237480D01*
X156625107Y-89224867D01*
X156605402Y-89210253D01*
X156587223Y-89193777D01*
X156570747Y-89175598D01*
X156556133Y-89155893D01*
X156543520Y-89134849D01*
X156533030Y-89112671D01*
X156524765Y-89089571D01*
X156518804Y-89065773D01*
X156515204Y-89041504D01*
X156514000Y-89017000D01*
X156514000Y-87767000D01*
X156515204Y-87742496D01*
X156518804Y-87718227D01*
X156524765Y-87694429D01*
X156533030Y-87671329D01*
X156543520Y-87649151D01*
X156556133Y-87628107D01*
X156570747Y-87608402D01*
X156587223Y-87590223D01*
X156605402Y-87573747D01*
X156625107Y-87559133D01*
X156646151Y-87546520D01*
X156668329Y-87536030D01*
X156691429Y-87527765D01*
X156715227Y-87521804D01*
X156739496Y-87518204D01*
X156764000Y-87517000D01*
X157689000Y-87517000D01*
X157713504Y-87518204D01*
X157713504Y-87518204D01*
G37*
D13*
X157226500Y-88392000D03*
D12*
G36*
X160688504Y-87518204D02*
G01*
X160712773Y-87521804D01*
X160736571Y-87527765D01*
X160759671Y-87536030D01*
X160781849Y-87546520D01*
X160802893Y-87559133D01*
X160822598Y-87573747D01*
X160840777Y-87590223D01*
X160857253Y-87608402D01*
X160871867Y-87628107D01*
X160884480Y-87649151D01*
X160894970Y-87671329D01*
X160903235Y-87694429D01*
X160909196Y-87718227D01*
X160912796Y-87742496D01*
X160914000Y-87767000D01*
X160914000Y-89017000D01*
X160912796Y-89041504D01*
X160909196Y-89065773D01*
X160903235Y-89089571D01*
X160894970Y-89112671D01*
X160884480Y-89134849D01*
X160871867Y-89155893D01*
X160857253Y-89175598D01*
X160840777Y-89193777D01*
X160822598Y-89210253D01*
X160802893Y-89224867D01*
X160781849Y-89237480D01*
X160759671Y-89247970D01*
X160736571Y-89256235D01*
X160712773Y-89262196D01*
X160688504Y-89265796D01*
X160664000Y-89267000D01*
X159739000Y-89267000D01*
X159714496Y-89265796D01*
X159690227Y-89262196D01*
X159666429Y-89256235D01*
X159643329Y-89247970D01*
X159621151Y-89237480D01*
X159600107Y-89224867D01*
X159580402Y-89210253D01*
X159562223Y-89193777D01*
X159545747Y-89175598D01*
X159531133Y-89155893D01*
X159518520Y-89134849D01*
X159508030Y-89112671D01*
X159499765Y-89089571D01*
X159493804Y-89065773D01*
X159490204Y-89041504D01*
X159489000Y-89017000D01*
X159489000Y-87767000D01*
X159490204Y-87742496D01*
X159493804Y-87718227D01*
X159499765Y-87694429D01*
X159508030Y-87671329D01*
X159518520Y-87649151D01*
X159531133Y-87628107D01*
X159545747Y-87608402D01*
X159562223Y-87590223D01*
X159580402Y-87573747D01*
X159600107Y-87559133D01*
X159621151Y-87546520D01*
X159643329Y-87536030D01*
X159666429Y-87527765D01*
X159690227Y-87521804D01*
X159714496Y-87518204D01*
X159739000Y-87517000D01*
X160664000Y-87517000D01*
X160688504Y-87518204D01*
X160688504Y-87518204D01*
G37*
D13*
X160201500Y-88392000D03*
D12*
G36*
X157713504Y-98948204D02*
G01*
X157737773Y-98951804D01*
X157761571Y-98957765D01*
X157784671Y-98966030D01*
X157806849Y-98976520D01*
X157827893Y-98989133D01*
X157847598Y-99003747D01*
X157865777Y-99020223D01*
X157882253Y-99038402D01*
X157896867Y-99058107D01*
X157909480Y-99079151D01*
X157919970Y-99101329D01*
X157928235Y-99124429D01*
X157934196Y-99148227D01*
X157937796Y-99172496D01*
X157939000Y-99197000D01*
X157939000Y-100447000D01*
X157937796Y-100471504D01*
X157934196Y-100495773D01*
X157928235Y-100519571D01*
X157919970Y-100542671D01*
X157909480Y-100564849D01*
X157896867Y-100585893D01*
X157882253Y-100605598D01*
X157865777Y-100623777D01*
X157847598Y-100640253D01*
X157827893Y-100654867D01*
X157806849Y-100667480D01*
X157784671Y-100677970D01*
X157761571Y-100686235D01*
X157737773Y-100692196D01*
X157713504Y-100695796D01*
X157689000Y-100697000D01*
X156764000Y-100697000D01*
X156739496Y-100695796D01*
X156715227Y-100692196D01*
X156691429Y-100686235D01*
X156668329Y-100677970D01*
X156646151Y-100667480D01*
X156625107Y-100654867D01*
X156605402Y-100640253D01*
X156587223Y-100623777D01*
X156570747Y-100605598D01*
X156556133Y-100585893D01*
X156543520Y-100564849D01*
X156533030Y-100542671D01*
X156524765Y-100519571D01*
X156518804Y-100495773D01*
X156515204Y-100471504D01*
X156514000Y-100447000D01*
X156514000Y-99197000D01*
X156515204Y-99172496D01*
X156518804Y-99148227D01*
X156524765Y-99124429D01*
X156533030Y-99101329D01*
X156543520Y-99079151D01*
X156556133Y-99058107D01*
X156570747Y-99038402D01*
X156587223Y-99020223D01*
X156605402Y-99003747D01*
X156625107Y-98989133D01*
X156646151Y-98976520D01*
X156668329Y-98966030D01*
X156691429Y-98957765D01*
X156715227Y-98951804D01*
X156739496Y-98948204D01*
X156764000Y-98947000D01*
X157689000Y-98947000D01*
X157713504Y-98948204D01*
X157713504Y-98948204D01*
G37*
D13*
X157226500Y-99822000D03*
D12*
G36*
X160688504Y-98948204D02*
G01*
X160712773Y-98951804D01*
X160736571Y-98957765D01*
X160759671Y-98966030D01*
X160781849Y-98976520D01*
X160802893Y-98989133D01*
X160822598Y-99003747D01*
X160840777Y-99020223D01*
X160857253Y-99038402D01*
X160871867Y-99058107D01*
X160884480Y-99079151D01*
X160894970Y-99101329D01*
X160903235Y-99124429D01*
X160909196Y-99148227D01*
X160912796Y-99172496D01*
X160914000Y-99197000D01*
X160914000Y-100447000D01*
X160912796Y-100471504D01*
X160909196Y-100495773D01*
X160903235Y-100519571D01*
X160894970Y-100542671D01*
X160884480Y-100564849D01*
X160871867Y-100585893D01*
X160857253Y-100605598D01*
X160840777Y-100623777D01*
X160822598Y-100640253D01*
X160802893Y-100654867D01*
X160781849Y-100667480D01*
X160759671Y-100677970D01*
X160736571Y-100686235D01*
X160712773Y-100692196D01*
X160688504Y-100695796D01*
X160664000Y-100697000D01*
X159739000Y-100697000D01*
X159714496Y-100695796D01*
X159690227Y-100692196D01*
X159666429Y-100686235D01*
X159643329Y-100677970D01*
X159621151Y-100667480D01*
X159600107Y-100654867D01*
X159580402Y-100640253D01*
X159562223Y-100623777D01*
X159545747Y-100605598D01*
X159531133Y-100585893D01*
X159518520Y-100564849D01*
X159508030Y-100542671D01*
X159499765Y-100519571D01*
X159493804Y-100495773D01*
X159490204Y-100471504D01*
X159489000Y-100447000D01*
X159489000Y-99197000D01*
X159490204Y-99172496D01*
X159493804Y-99148227D01*
X159499765Y-99124429D01*
X159508030Y-99101329D01*
X159518520Y-99079151D01*
X159531133Y-99058107D01*
X159545747Y-99038402D01*
X159562223Y-99020223D01*
X159580402Y-99003747D01*
X159600107Y-98989133D01*
X159621151Y-98976520D01*
X159643329Y-98966030D01*
X159666429Y-98957765D01*
X159690227Y-98951804D01*
X159714496Y-98948204D01*
X159739000Y-98947000D01*
X160664000Y-98947000D01*
X160688504Y-98948204D01*
X160688504Y-98948204D01*
G37*
D13*
X160201500Y-99822000D03*
D12*
G36*
X157713504Y-91328204D02*
G01*
X157737773Y-91331804D01*
X157761571Y-91337765D01*
X157784671Y-91346030D01*
X157806849Y-91356520D01*
X157827893Y-91369133D01*
X157847598Y-91383747D01*
X157865777Y-91400223D01*
X157882253Y-91418402D01*
X157896867Y-91438107D01*
X157909480Y-91459151D01*
X157919970Y-91481329D01*
X157928235Y-91504429D01*
X157934196Y-91528227D01*
X157937796Y-91552496D01*
X157939000Y-91577000D01*
X157939000Y-92827000D01*
X157937796Y-92851504D01*
X157934196Y-92875773D01*
X157928235Y-92899571D01*
X157919970Y-92922671D01*
X157909480Y-92944849D01*
X157896867Y-92965893D01*
X157882253Y-92985598D01*
X157865777Y-93003777D01*
X157847598Y-93020253D01*
X157827893Y-93034867D01*
X157806849Y-93047480D01*
X157784671Y-93057970D01*
X157761571Y-93066235D01*
X157737773Y-93072196D01*
X157713504Y-93075796D01*
X157689000Y-93077000D01*
X156764000Y-93077000D01*
X156739496Y-93075796D01*
X156715227Y-93072196D01*
X156691429Y-93066235D01*
X156668329Y-93057970D01*
X156646151Y-93047480D01*
X156625107Y-93034867D01*
X156605402Y-93020253D01*
X156587223Y-93003777D01*
X156570747Y-92985598D01*
X156556133Y-92965893D01*
X156543520Y-92944849D01*
X156533030Y-92922671D01*
X156524765Y-92899571D01*
X156518804Y-92875773D01*
X156515204Y-92851504D01*
X156514000Y-92827000D01*
X156514000Y-91577000D01*
X156515204Y-91552496D01*
X156518804Y-91528227D01*
X156524765Y-91504429D01*
X156533030Y-91481329D01*
X156543520Y-91459151D01*
X156556133Y-91438107D01*
X156570747Y-91418402D01*
X156587223Y-91400223D01*
X156605402Y-91383747D01*
X156625107Y-91369133D01*
X156646151Y-91356520D01*
X156668329Y-91346030D01*
X156691429Y-91337765D01*
X156715227Y-91331804D01*
X156739496Y-91328204D01*
X156764000Y-91327000D01*
X157689000Y-91327000D01*
X157713504Y-91328204D01*
X157713504Y-91328204D01*
G37*
D13*
X157226500Y-92202000D03*
D12*
G36*
X160688504Y-91328204D02*
G01*
X160712773Y-91331804D01*
X160736571Y-91337765D01*
X160759671Y-91346030D01*
X160781849Y-91356520D01*
X160802893Y-91369133D01*
X160822598Y-91383747D01*
X160840777Y-91400223D01*
X160857253Y-91418402D01*
X160871867Y-91438107D01*
X160884480Y-91459151D01*
X160894970Y-91481329D01*
X160903235Y-91504429D01*
X160909196Y-91528227D01*
X160912796Y-91552496D01*
X160914000Y-91577000D01*
X160914000Y-92827000D01*
X160912796Y-92851504D01*
X160909196Y-92875773D01*
X160903235Y-92899571D01*
X160894970Y-92922671D01*
X160884480Y-92944849D01*
X160871867Y-92965893D01*
X160857253Y-92985598D01*
X160840777Y-93003777D01*
X160822598Y-93020253D01*
X160802893Y-93034867D01*
X160781849Y-93047480D01*
X160759671Y-93057970D01*
X160736571Y-93066235D01*
X160712773Y-93072196D01*
X160688504Y-93075796D01*
X160664000Y-93077000D01*
X159739000Y-93077000D01*
X159714496Y-93075796D01*
X159690227Y-93072196D01*
X159666429Y-93066235D01*
X159643329Y-93057970D01*
X159621151Y-93047480D01*
X159600107Y-93034867D01*
X159580402Y-93020253D01*
X159562223Y-93003777D01*
X159545747Y-92985598D01*
X159531133Y-92965893D01*
X159518520Y-92944849D01*
X159508030Y-92922671D01*
X159499765Y-92899571D01*
X159493804Y-92875773D01*
X159490204Y-92851504D01*
X159489000Y-92827000D01*
X159489000Y-91577000D01*
X159490204Y-91552496D01*
X159493804Y-91528227D01*
X159499765Y-91504429D01*
X159508030Y-91481329D01*
X159518520Y-91459151D01*
X159531133Y-91438107D01*
X159545747Y-91418402D01*
X159562223Y-91400223D01*
X159580402Y-91383747D01*
X159600107Y-91369133D01*
X159621151Y-91356520D01*
X159643329Y-91346030D01*
X159666429Y-91337765D01*
X159690227Y-91331804D01*
X159714496Y-91328204D01*
X159739000Y-91327000D01*
X160664000Y-91327000D01*
X160688504Y-91328204D01*
X160688504Y-91328204D01*
G37*
D13*
X160201500Y-92202000D03*
D16*
X153256000Y-95631000D03*
X153256000Y-94361000D03*
X153256000Y-93091000D03*
X153256000Y-91821000D03*
X145956000Y-91821000D03*
X145956000Y-93091000D03*
X145956000Y-94361000D03*
X145956000Y-95631000D03*
D12*
G36*
X134507504Y-91527204D02*
G01*
X134531773Y-91530804D01*
X134555571Y-91536765D01*
X134578671Y-91545030D01*
X134600849Y-91555520D01*
X134621893Y-91568133D01*
X134641598Y-91582747D01*
X134659777Y-91599223D01*
X134676253Y-91617402D01*
X134690867Y-91637107D01*
X134703480Y-91658151D01*
X134713970Y-91680329D01*
X134722235Y-91703429D01*
X134728196Y-91727227D01*
X134731796Y-91751496D01*
X134733000Y-91776000D01*
X134733000Y-92701000D01*
X134731796Y-92725504D01*
X134728196Y-92749773D01*
X134722235Y-92773571D01*
X134713970Y-92796671D01*
X134703480Y-92818849D01*
X134690867Y-92839893D01*
X134676253Y-92859598D01*
X134659777Y-92877777D01*
X134641598Y-92894253D01*
X134621893Y-92908867D01*
X134600849Y-92921480D01*
X134578671Y-92931970D01*
X134555571Y-92940235D01*
X134531773Y-92946196D01*
X134507504Y-92949796D01*
X134483000Y-92951000D01*
X133233000Y-92951000D01*
X133208496Y-92949796D01*
X133184227Y-92946196D01*
X133160429Y-92940235D01*
X133137329Y-92931970D01*
X133115151Y-92921480D01*
X133094107Y-92908867D01*
X133074402Y-92894253D01*
X133056223Y-92877777D01*
X133039747Y-92859598D01*
X133025133Y-92839893D01*
X133012520Y-92818849D01*
X133002030Y-92796671D01*
X132993765Y-92773571D01*
X132987804Y-92749773D01*
X132984204Y-92725504D01*
X132983000Y-92701000D01*
X132983000Y-91776000D01*
X132984204Y-91751496D01*
X132987804Y-91727227D01*
X132993765Y-91703429D01*
X133002030Y-91680329D01*
X133012520Y-91658151D01*
X133025133Y-91637107D01*
X133039747Y-91617402D01*
X133056223Y-91599223D01*
X133074402Y-91582747D01*
X133094107Y-91568133D01*
X133115151Y-91555520D01*
X133137329Y-91545030D01*
X133160429Y-91536765D01*
X133184227Y-91530804D01*
X133208496Y-91527204D01*
X133233000Y-91526000D01*
X134483000Y-91526000D01*
X134507504Y-91527204D01*
X134507504Y-91527204D01*
G37*
D13*
X133858000Y-92238500D03*
D12*
G36*
X134507504Y-94502204D02*
G01*
X134531773Y-94505804D01*
X134555571Y-94511765D01*
X134578671Y-94520030D01*
X134600849Y-94530520D01*
X134621893Y-94543133D01*
X134641598Y-94557747D01*
X134659777Y-94574223D01*
X134676253Y-94592402D01*
X134690867Y-94612107D01*
X134703480Y-94633151D01*
X134713970Y-94655329D01*
X134722235Y-94678429D01*
X134728196Y-94702227D01*
X134731796Y-94726496D01*
X134733000Y-94751000D01*
X134733000Y-95676000D01*
X134731796Y-95700504D01*
X134728196Y-95724773D01*
X134722235Y-95748571D01*
X134713970Y-95771671D01*
X134703480Y-95793849D01*
X134690867Y-95814893D01*
X134676253Y-95834598D01*
X134659777Y-95852777D01*
X134641598Y-95869253D01*
X134621893Y-95883867D01*
X134600849Y-95896480D01*
X134578671Y-95906970D01*
X134555571Y-95915235D01*
X134531773Y-95921196D01*
X134507504Y-95924796D01*
X134483000Y-95926000D01*
X133233000Y-95926000D01*
X133208496Y-95924796D01*
X133184227Y-95921196D01*
X133160429Y-95915235D01*
X133137329Y-95906970D01*
X133115151Y-95896480D01*
X133094107Y-95883867D01*
X133074402Y-95869253D01*
X133056223Y-95852777D01*
X133039747Y-95834598D01*
X133025133Y-95814893D01*
X133012520Y-95793849D01*
X133002030Y-95771671D01*
X132993765Y-95748571D01*
X132987804Y-95724773D01*
X132984204Y-95700504D01*
X132983000Y-95676000D01*
X132983000Y-94751000D01*
X132984204Y-94726496D01*
X132987804Y-94702227D01*
X132993765Y-94678429D01*
X133002030Y-94655329D01*
X133012520Y-94633151D01*
X133025133Y-94612107D01*
X133039747Y-94592402D01*
X133056223Y-94574223D01*
X133074402Y-94557747D01*
X133094107Y-94543133D01*
X133115151Y-94530520D01*
X133137329Y-94520030D01*
X133160429Y-94511765D01*
X133184227Y-94505804D01*
X133208496Y-94502204D01*
X133233000Y-94501000D01*
X134483000Y-94501000D01*
X134507504Y-94502204D01*
X134507504Y-94502204D01*
G37*
D13*
X133858000Y-95213500D03*
D12*
G36*
X138063504Y-91527204D02*
G01*
X138087773Y-91530804D01*
X138111571Y-91536765D01*
X138134671Y-91545030D01*
X138156849Y-91555520D01*
X138177893Y-91568133D01*
X138197598Y-91582747D01*
X138215777Y-91599223D01*
X138232253Y-91617402D01*
X138246867Y-91637107D01*
X138259480Y-91658151D01*
X138269970Y-91680329D01*
X138278235Y-91703429D01*
X138284196Y-91727227D01*
X138287796Y-91751496D01*
X138289000Y-91776000D01*
X138289000Y-92701000D01*
X138287796Y-92725504D01*
X138284196Y-92749773D01*
X138278235Y-92773571D01*
X138269970Y-92796671D01*
X138259480Y-92818849D01*
X138246867Y-92839893D01*
X138232253Y-92859598D01*
X138215777Y-92877777D01*
X138197598Y-92894253D01*
X138177893Y-92908867D01*
X138156849Y-92921480D01*
X138134671Y-92931970D01*
X138111571Y-92940235D01*
X138087773Y-92946196D01*
X138063504Y-92949796D01*
X138039000Y-92951000D01*
X136789000Y-92951000D01*
X136764496Y-92949796D01*
X136740227Y-92946196D01*
X136716429Y-92940235D01*
X136693329Y-92931970D01*
X136671151Y-92921480D01*
X136650107Y-92908867D01*
X136630402Y-92894253D01*
X136612223Y-92877777D01*
X136595747Y-92859598D01*
X136581133Y-92839893D01*
X136568520Y-92818849D01*
X136558030Y-92796671D01*
X136549765Y-92773571D01*
X136543804Y-92749773D01*
X136540204Y-92725504D01*
X136539000Y-92701000D01*
X136539000Y-91776000D01*
X136540204Y-91751496D01*
X136543804Y-91727227D01*
X136549765Y-91703429D01*
X136558030Y-91680329D01*
X136568520Y-91658151D01*
X136581133Y-91637107D01*
X136595747Y-91617402D01*
X136612223Y-91599223D01*
X136630402Y-91582747D01*
X136650107Y-91568133D01*
X136671151Y-91555520D01*
X136693329Y-91545030D01*
X136716429Y-91536765D01*
X136740227Y-91530804D01*
X136764496Y-91527204D01*
X136789000Y-91526000D01*
X138039000Y-91526000D01*
X138063504Y-91527204D01*
X138063504Y-91527204D01*
G37*
D13*
X137414000Y-92238500D03*
D12*
G36*
X138063504Y-94502204D02*
G01*
X138087773Y-94505804D01*
X138111571Y-94511765D01*
X138134671Y-94520030D01*
X138156849Y-94530520D01*
X138177893Y-94543133D01*
X138197598Y-94557747D01*
X138215777Y-94574223D01*
X138232253Y-94592402D01*
X138246867Y-94612107D01*
X138259480Y-94633151D01*
X138269970Y-94655329D01*
X138278235Y-94678429D01*
X138284196Y-94702227D01*
X138287796Y-94726496D01*
X138289000Y-94751000D01*
X138289000Y-95676000D01*
X138287796Y-95700504D01*
X138284196Y-95724773D01*
X138278235Y-95748571D01*
X138269970Y-95771671D01*
X138259480Y-95793849D01*
X138246867Y-95814893D01*
X138232253Y-95834598D01*
X138215777Y-95852777D01*
X138197598Y-95869253D01*
X138177893Y-95883867D01*
X138156849Y-95896480D01*
X138134671Y-95906970D01*
X138111571Y-95915235D01*
X138087773Y-95921196D01*
X138063504Y-95924796D01*
X138039000Y-95926000D01*
X136789000Y-95926000D01*
X136764496Y-95924796D01*
X136740227Y-95921196D01*
X136716429Y-95915235D01*
X136693329Y-95906970D01*
X136671151Y-95896480D01*
X136650107Y-95883867D01*
X136630402Y-95869253D01*
X136612223Y-95852777D01*
X136595747Y-95834598D01*
X136581133Y-95814893D01*
X136568520Y-95793849D01*
X136558030Y-95771671D01*
X136549765Y-95748571D01*
X136543804Y-95724773D01*
X136540204Y-95700504D01*
X136539000Y-95676000D01*
X136539000Y-94751000D01*
X136540204Y-94726496D01*
X136543804Y-94702227D01*
X136549765Y-94678429D01*
X136558030Y-94655329D01*
X136568520Y-94633151D01*
X136581133Y-94612107D01*
X136595747Y-94592402D01*
X136612223Y-94574223D01*
X136630402Y-94557747D01*
X136650107Y-94543133D01*
X136671151Y-94530520D01*
X136693329Y-94520030D01*
X136716429Y-94511765D01*
X136740227Y-94505804D01*
X136764496Y-94502204D01*
X136789000Y-94501000D01*
X138039000Y-94501000D01*
X138063504Y-94502204D01*
X138063504Y-94502204D01*
G37*
D13*
X137414000Y-95213500D03*
D17*
X143443000Y-103060000D03*
X138243000Y-103060000D03*
X152333000Y-102806000D03*
X147133000Y-102806000D03*
X159699000Y-104584000D03*
X154499000Y-104584000D03*
D18*
X167002000Y-112986000D03*
X167002000Y-115526000D03*
D19*
X164462000Y-112986000D03*
X164462000Y-115526000D03*
X161922000Y-112986000D03*
D20*
X161922000Y-115526000D03*
D21*
X153499000Y-104584000D02*
X152927000Y-105156000D01*
X154499000Y-104584000D02*
X153499000Y-104584000D01*
X154499000Y-104584000D02*
X154499000Y-106359000D01*
X154499000Y-106359000D02*
X154432000Y-106426000D01*
X154432000Y-106426000D02*
X152908000Y-106426000D01*
X152908000Y-106426000D02*
X152654000Y-106172000D01*
X148091000Y-108966000D02*
X148336000Y-109211000D01*
X147066000Y-108966000D02*
X148091000Y-108966000D01*
X148336000Y-109211000D02*
X148336000Y-109474000D01*
X153924000Y-110490000D02*
X154432000Y-110490000D01*
X153670000Y-110236000D02*
X153924000Y-110490000D01*
X152466000Y-110236000D02*
X153670000Y-110236000D01*
X136510998Y-85344000D02*
X139700000Y-85344000D01*
X134366000Y-83199002D02*
X136510998Y-85344000D01*
X133096000Y-80264000D02*
X133096000Y-80900410D01*
X134366000Y-82170410D02*
X134366000Y-83199002D01*
X139700000Y-85344000D02*
X140208000Y-85852000D01*
X140208000Y-85852000D02*
X140208000Y-89154000D01*
X140208000Y-89154000D02*
X140462000Y-89154000D01*
X133895999Y-81063999D02*
X133895999Y-81571999D01*
X133096000Y-80264000D02*
X133895999Y-81063999D01*
X133895999Y-81571999D02*
X134112000Y-81788000D01*
X160201500Y-97282300D02*
X160201500Y-99822000D01*
X160201500Y-97282300D02*
X156082600Y-97282300D01*
X156082600Y-97282300D02*
X154431300Y-95631000D01*
X138176000Y-80264000D02*
X152073500Y-80264000D01*
X152073500Y-80264000D02*
X160201500Y-88392000D01*
X160201500Y-96012000D02*
X160201500Y-97282300D01*
X153256000Y-95631000D02*
X154431300Y-95631000D01*
X160201500Y-96012000D02*
X160201500Y-92202000D01*
X138600700Y-108016000D02*
X142718500Y-108016000D01*
X142718500Y-108016000D02*
X143256000Y-107478500D01*
X137438000Y-108016000D02*
X138600700Y-108016000D01*
X160201500Y-88392000D02*
X160201500Y-92202000D01*
X138638000Y-108666000D02*
X137988000Y-108016000D01*
X139113001Y-109691001D02*
X138638000Y-109216000D01*
X141923012Y-109415990D02*
X141648001Y-109691001D01*
X144271979Y-108966021D02*
X143822010Y-109415990D01*
X143822010Y-109415990D02*
X141923012Y-109415990D01*
X145965999Y-107305602D02*
X144305580Y-108966021D01*
X145965999Y-107135999D02*
X145965999Y-107305602D01*
X152466000Y-111506000D02*
X151991000Y-111506000D01*
X146030999Y-107070999D02*
X145965999Y-107135999D01*
X148166001Y-107135999D02*
X148101001Y-107070999D01*
X148101001Y-107070999D02*
X146030999Y-107070999D01*
X137988000Y-108016000D02*
X137438000Y-108016000D01*
X151991000Y-111506000D02*
X148166001Y-107681001D01*
X138638000Y-109216000D02*
X138638000Y-108666000D01*
X144305580Y-108966021D02*
X144271979Y-108966021D01*
X141648001Y-109691001D02*
X139113001Y-109691001D01*
X148166001Y-107681001D02*
X148166001Y-107135999D01*
X160815600Y-106029500D02*
X159911100Y-106934000D01*
X133205700Y-108741300D02*
X137438000Y-108741300D01*
X160815600Y-100436100D02*
X160815600Y-106029500D01*
X159911100Y-106934000D02*
X149066022Y-106934000D01*
X160201500Y-99822000D02*
X160815600Y-100436100D01*
X148473801Y-106170980D02*
X144589980Y-106170980D01*
X133539600Y-105894500D02*
X132626900Y-106807200D01*
X149066022Y-106763199D02*
X148473801Y-106170980D01*
X149066022Y-106934000D02*
X149066022Y-106763199D01*
X137438000Y-108741300D02*
X137438000Y-108016000D01*
X132626900Y-108162500D02*
X133205700Y-108741300D01*
X144589980Y-106170980D02*
X144313500Y-105894500D01*
X144313500Y-105894500D02*
X133539600Y-105894500D01*
X132626900Y-106807200D02*
X132626900Y-108162500D01*
X161240300Y-107696000D02*
X161332700Y-107603600D01*
X161332700Y-107603600D02*
X161332700Y-87620700D01*
X161332700Y-87620700D02*
X152850700Y-79138700D01*
X152850700Y-79138700D02*
X137605200Y-79138700D01*
X137605200Y-79138700D02*
X136761300Y-79982600D01*
X136761300Y-79982600D02*
X136761300Y-80264000D01*
X161240300Y-107696000D02*
X152466000Y-107696000D01*
X154431300Y-91821000D02*
X157226500Y-89025800D01*
X157226500Y-89025800D02*
X157226500Y-88392000D01*
X136761300Y-80264000D02*
X136761300Y-80545400D01*
X136761300Y-80545400D02*
X137605200Y-81389300D01*
X137605200Y-81389300D02*
X150223800Y-81389300D01*
X150223800Y-81389300D02*
X157226500Y-88392000D01*
X135636000Y-80264000D02*
X136761300Y-80264000D01*
X153256000Y-91821000D02*
X154431300Y-91821000D01*
X161290000Y-108625100D02*
X161290000Y-107745700D01*
X164462000Y-111797100D02*
X161290000Y-108625100D01*
X161290000Y-107745700D02*
X161240300Y-107696000D01*
X164462000Y-112986000D02*
X164462000Y-111797100D01*
X152080700Y-93091000D02*
X146365700Y-87376000D01*
X146365700Y-87376000D02*
X141985500Y-87376000D01*
X153256000Y-93091000D02*
X152080700Y-93091000D01*
X157226500Y-92202000D02*
X156337500Y-93091000D01*
X156337500Y-93091000D02*
X153256000Y-93091000D01*
X139226000Y-82804000D02*
X138176000Y-82804000D01*
X141985500Y-85563500D02*
X139226000Y-82804000D01*
X141985500Y-87376000D02*
X141985500Y-85563500D01*
X157226500Y-96012000D02*
X155575500Y-94361000D01*
X155575500Y-94361000D02*
X153256000Y-94361000D01*
X164462000Y-115526000D02*
X164462000Y-114522900D01*
X152156000Y-94361000D02*
X153256000Y-94361000D01*
X146371010Y-88576010D02*
X152156000Y-94361000D01*
X141284820Y-88576010D02*
X146371010Y-88576010D01*
X140947990Y-88239180D02*
X141284820Y-88576010D01*
X140947990Y-86512820D02*
X140947990Y-88239180D01*
X140970000Y-85598000D02*
X140970000Y-86490810D01*
X137050999Y-83964999D02*
X137414000Y-84328000D01*
X139700000Y-84328000D02*
X140970000Y-85598000D01*
X137050999Y-82804000D02*
X137050999Y-83964999D01*
X140970000Y-86490810D02*
X140947990Y-86512820D01*
X137414000Y-84328000D02*
X139700000Y-84328000D01*
X135636000Y-82804000D02*
X137050999Y-82804000D01*
X164338000Y-114554000D02*
X163273100Y-113489100D01*
X163273100Y-112646500D02*
X159592600Y-108966000D01*
X163273100Y-113489100D02*
X163273100Y-112646500D01*
X159592600Y-108966000D02*
X152466000Y-108966000D01*
X164369100Y-114522900D02*
X164338000Y-114554000D01*
X164462000Y-114522900D02*
X164369100Y-114522900D01*
X164430900Y-114554000D02*
X164462000Y-114522900D01*
X153061200Y-78688300D02*
X161798000Y-87425100D01*
X165813399Y-112512089D02*
X165813399Y-113393731D01*
X135580900Y-78688300D02*
X153061200Y-78688300D01*
X134499000Y-79770200D02*
X135580900Y-78688300D01*
X164653130Y-114554000D02*
X164430900Y-114554000D01*
X165813399Y-113393731D02*
X164653130Y-114554000D01*
X161798000Y-108496690D02*
X165813399Y-112512089D01*
X161798000Y-87425100D02*
X161798000Y-108496690D01*
X134499000Y-80792002D02*
X135240998Y-81534000D01*
X134499000Y-79770200D02*
X134499000Y-80792002D01*
X135497370Y-81534000D02*
X135636000Y-81672630D01*
X135636000Y-81672630D02*
X135636000Y-82804000D01*
X135240998Y-81534000D02*
X135497370Y-81534000D01*
X147018700Y-95631000D02*
X149317200Y-97929500D01*
X149317200Y-97929500D02*
X153547000Y-97929500D01*
X153547000Y-97929500D02*
X155439500Y-99822000D01*
X155439500Y-99822000D02*
X157226500Y-99822000D01*
X133096000Y-82804000D02*
X133096000Y-83929300D01*
X145956000Y-95631000D02*
X143725600Y-95631000D01*
X143725600Y-95631000D02*
X142232300Y-94137700D01*
X142232300Y-94137700D02*
X133797600Y-94137700D01*
X133797600Y-94137700D02*
X132642300Y-92982400D01*
X132642300Y-92982400D02*
X132642300Y-84383000D01*
X132642300Y-84383000D02*
X133096000Y-83929300D01*
X146487400Y-95631000D02*
X145956000Y-95631000D01*
X146487400Y-95631000D02*
X147018700Y-95631000D01*
X137414000Y-92238500D02*
X139010500Y-90642000D01*
X139010500Y-90642000D02*
X139010500Y-87376000D01*
X144098400Y-106377400D02*
X134959100Y-106377400D01*
X134959100Y-106377400D02*
X133858000Y-107478500D01*
X144456010Y-106990210D02*
X144462900Y-106997100D01*
X144456010Y-106735010D02*
X144456010Y-106990210D01*
X144098400Y-106377400D02*
X144456010Y-106735010D01*
X142087990Y-108516010D02*
X144119180Y-108516010D01*
X144456010Y-108179180D02*
X144456010Y-107003990D01*
X140438000Y-108966000D02*
X141638000Y-108966000D01*
X144119180Y-108516010D02*
X144456010Y-108179180D01*
X144456010Y-107003990D02*
X144462900Y-106997100D01*
X141638000Y-108966000D02*
X142087990Y-108516010D01*
X161058401Y-112122401D02*
X161922000Y-112986000D01*
X158527400Y-109591400D02*
X161058401Y-112122401D01*
X150823400Y-109591400D02*
X158527400Y-109591400D01*
X144462900Y-106997100D02*
X144839011Y-106620989D01*
X144839011Y-106620989D02*
X148287402Y-106620990D01*
X148616011Y-107384011D02*
X150823400Y-109591400D01*
X148616011Y-106949599D02*
X148616011Y-107384011D01*
X148287402Y-106620990D02*
X148616011Y-106949599D01*
X145956000Y-94361000D02*
X143092500Y-94361000D01*
X143092500Y-94361000D02*
X140970000Y-92238500D01*
X140970000Y-95213500D02*
X144144200Y-98387700D01*
X144144200Y-98387700D02*
X153368300Y-98387700D01*
X153368300Y-98387700D02*
X158623700Y-103643100D01*
X158623700Y-103643100D02*
X158623700Y-104584000D01*
X159699000Y-104584000D02*
X158623700Y-104584000D01*
X152333000Y-102806000D02*
X151257700Y-102806000D01*
X151257700Y-102806000D02*
X151257700Y-101646800D01*
X151257700Y-101646800D02*
X149381800Y-99770900D01*
X149381800Y-99770900D02*
X141971400Y-99770900D01*
X141971400Y-99770900D02*
X137414000Y-95213500D01*
X139531400Y-91776000D02*
X139531400Y-92050300D01*
X138249800Y-93331900D02*
X134951400Y-93331900D01*
X142170010Y-92271011D02*
X142170010Y-91537820D01*
X134629347Y-93009847D02*
X133858000Y-92238500D01*
X142989999Y-93091000D02*
X142170010Y-92271011D01*
X145956000Y-93091000D02*
X142989999Y-93091000D01*
X142170010Y-91537820D02*
X141833180Y-91200990D01*
X134951400Y-93331900D02*
X134629347Y-93009847D01*
X139531400Y-92050300D02*
X138249800Y-93331900D01*
X140106410Y-91200990D02*
X139531400Y-91776000D01*
X141833180Y-91200990D02*
X140106410Y-91200990D01*
X143443000Y-103060000D02*
X143443000Y-101384700D01*
X143443000Y-101384700D02*
X140029200Y-101384700D01*
X140029200Y-101384700D02*
X133858000Y-95213500D01*
D22*
G36*
X138400587Y-75122819D02*
G01*
X138397273Y-75156466D01*
X138410499Y-75290749D01*
X138449668Y-75419872D01*
X138513275Y-75538873D01*
X138598876Y-75643177D01*
X138697202Y-75723872D01*
X138703180Y-75728778D01*
X138822181Y-75792385D01*
X138951304Y-75831554D01*
X139085587Y-75844780D01*
X139119234Y-75841466D01*
X160365868Y-75841466D01*
X160399515Y-75844780D01*
X160533798Y-75831554D01*
X160662921Y-75792385D01*
X160781922Y-75728778D01*
X160886226Y-75643177D01*
X160971827Y-75538873D01*
X161035434Y-75419872D01*
X161074603Y-75290749D01*
X161084515Y-75190113D01*
X161084515Y-75190112D01*
X161087829Y-75156466D01*
X161084515Y-75122819D01*
X161084515Y-73376500D01*
X166689300Y-73376500D01*
X166689299Y-75122824D01*
X166685985Y-75156471D01*
X166699211Y-75290754D01*
X166738380Y-75419877D01*
X166801987Y-75538878D01*
X166887588Y-75643182D01*
X166991892Y-75728783D01*
X167110893Y-75792390D01*
X167240016Y-75831559D01*
X167327870Y-75840212D01*
X167374299Y-75844785D01*
X167407946Y-75841471D01*
X171973186Y-75841471D01*
X171973185Y-118779374D01*
X167422911Y-118779374D01*
X167389264Y-118776060D01*
X167355617Y-118779374D01*
X167254981Y-118789286D01*
X167125858Y-118828455D01*
X167006857Y-118892062D01*
X166902553Y-118977663D01*
X166816952Y-119081967D01*
X166753345Y-119200968D01*
X166714176Y-119330091D01*
X166700950Y-119464374D01*
X166704265Y-119498031D01*
X166704264Y-121281034D01*
X161099491Y-121281034D01*
X161099491Y-119498021D01*
X161102805Y-119464374D01*
X161089579Y-119330091D01*
X161050410Y-119200968D01*
X160986803Y-119081967D01*
X160901202Y-118977663D01*
X160796898Y-118892062D01*
X160677897Y-118828455D01*
X160548774Y-118789286D01*
X160448138Y-118779374D01*
X160414491Y-118776060D01*
X160380844Y-118779374D01*
X139072184Y-118779374D01*
X139038537Y-118776060D01*
X139004890Y-118779374D01*
X138904254Y-118789286D01*
X138775131Y-118828455D01*
X138656130Y-118892062D01*
X138551826Y-118977663D01*
X138466225Y-119081967D01*
X138402618Y-119200968D01*
X138363449Y-119330091D01*
X138350223Y-119464374D01*
X138353538Y-119498031D01*
X138353537Y-121281034D01*
X132748276Y-121281034D01*
X132748276Y-119498021D01*
X132751590Y-119464374D01*
X132738364Y-119330091D01*
X132699195Y-119200968D01*
X132635588Y-119081967D01*
X132549987Y-118977663D01*
X132445683Y-118892062D01*
X132326682Y-118828455D01*
X132197559Y-118789286D01*
X132096923Y-118779374D01*
X132063276Y-118776060D01*
X132029629Y-118779374D01*
X128508747Y-118779374D01*
X128508747Y-116389600D01*
X160420328Y-116389600D01*
X160432588Y-116514082D01*
X160468898Y-116633780D01*
X160527863Y-116744094D01*
X160607215Y-116840785D01*
X160703906Y-116920137D01*
X160814220Y-116979102D01*
X160933918Y-117015412D01*
X161058400Y-117027672D01*
X161636250Y-117024600D01*
X161795000Y-116865850D01*
X161795000Y-115653000D01*
X160582150Y-115653000D01*
X160423400Y-115811750D01*
X160420328Y-116389600D01*
X128508747Y-116389600D01*
X128508747Y-111806000D01*
X145652928Y-111806000D01*
X145665188Y-111930482D01*
X145701498Y-112050180D01*
X145760463Y-112160494D01*
X145839815Y-112257185D01*
X145936506Y-112336537D01*
X146046820Y-112395502D01*
X146166518Y-112431812D01*
X146291000Y-112444072D01*
X146780250Y-112441000D01*
X146939000Y-112282250D01*
X146939000Y-111633000D01*
X147193000Y-111633000D01*
X147193000Y-112282250D01*
X147351750Y-112441000D01*
X147841000Y-112444072D01*
X147965482Y-112431812D01*
X148085180Y-112395502D01*
X148195494Y-112336537D01*
X148292185Y-112257185D01*
X148371537Y-112160494D01*
X148430502Y-112050180D01*
X148466812Y-111930482D01*
X148479072Y-111806000D01*
X148476000Y-111791750D01*
X148317250Y-111633000D01*
X147193000Y-111633000D01*
X146939000Y-111633000D01*
X145814750Y-111633000D01*
X145656000Y-111791750D01*
X145652928Y-111806000D01*
X128508747Y-111806000D01*
X128508747Y-111166000D01*
X132344928Y-111166000D01*
X132357188Y-111290482D01*
X132393498Y-111410180D01*
X132452463Y-111520494D01*
X132531815Y-111617185D01*
X132628506Y-111696537D01*
X132738820Y-111755502D01*
X132858518Y-111791812D01*
X132983000Y-111804072D01*
X133572250Y-111801000D01*
X133731000Y-111642250D01*
X133731000Y-110580500D01*
X133985000Y-110580500D01*
X133985000Y-111642250D01*
X134143750Y-111801000D01*
X134733000Y-111804072D01*
X134857482Y-111791812D01*
X134977180Y-111755502D01*
X135087494Y-111696537D01*
X135184185Y-111617185D01*
X135263537Y-111520494D01*
X135322502Y-111410180D01*
X135358812Y-111290482D01*
X135371072Y-111166000D01*
X141742928Y-111166000D01*
X141755188Y-111290482D01*
X141791498Y-111410180D01*
X141850463Y-111520494D01*
X141929815Y-111617185D01*
X142026506Y-111696537D01*
X142136820Y-111755502D01*
X142256518Y-111791812D01*
X142381000Y-111804072D01*
X142970250Y-111801000D01*
X143129000Y-111642250D01*
X143129000Y-110580500D01*
X143383000Y-110580500D01*
X143383000Y-111642250D01*
X143541750Y-111801000D01*
X144131000Y-111804072D01*
X144255482Y-111791812D01*
X144375180Y-111755502D01*
X144485494Y-111696537D01*
X144582185Y-111617185D01*
X144661537Y-111520494D01*
X144720502Y-111410180D01*
X144756812Y-111290482D01*
X144769072Y-111166000D01*
X144766000Y-110739250D01*
X144607250Y-110580500D01*
X143383000Y-110580500D01*
X143129000Y-110580500D01*
X141904750Y-110580500D01*
X141746000Y-110739250D01*
X141742928Y-111166000D01*
X135371072Y-111166000D01*
X135368000Y-110739250D01*
X135209250Y-110580500D01*
X133985000Y-110580500D01*
X133731000Y-110580500D01*
X132506750Y-110580500D01*
X132348000Y-110739250D01*
X132344928Y-111166000D01*
X128508747Y-111166000D01*
X128508747Y-104410000D01*
X136854928Y-104410000D01*
X136867188Y-104534482D01*
X136903498Y-104654180D01*
X136962463Y-104764494D01*
X137041815Y-104861185D01*
X137138506Y-104940537D01*
X137248820Y-104999502D01*
X137368518Y-105035812D01*
X137493000Y-105048072D01*
X137957250Y-105045000D01*
X138116000Y-104886250D01*
X138116000Y-103187000D01*
X138370000Y-103187000D01*
X138370000Y-104886250D01*
X138528750Y-105045000D01*
X138993000Y-105048072D01*
X139117482Y-105035812D01*
X139237180Y-104999502D01*
X139347494Y-104940537D01*
X139444185Y-104861185D01*
X139523537Y-104764494D01*
X139582502Y-104654180D01*
X139618812Y-104534482D01*
X139631072Y-104410000D01*
X139628000Y-103345750D01*
X139469250Y-103187000D01*
X138370000Y-103187000D01*
X138116000Y-103187000D01*
X137016750Y-103187000D01*
X136858000Y-103345750D01*
X136854928Y-104410000D01*
X128508747Y-104410000D01*
X128508747Y-101710000D01*
X136854928Y-101710000D01*
X136858000Y-102774250D01*
X137016750Y-102933000D01*
X138116000Y-102933000D01*
X138116000Y-101233750D01*
X137957250Y-101075000D01*
X137493000Y-101071928D01*
X137368518Y-101084188D01*
X137248820Y-101120498D01*
X137138506Y-101179463D01*
X137041815Y-101258815D01*
X136962463Y-101355506D01*
X136903498Y-101465820D01*
X136867188Y-101585518D01*
X136854928Y-101710000D01*
X128508747Y-101710000D01*
X128508747Y-82804000D01*
X131654057Y-82804000D01*
X131681764Y-83085309D01*
X131763818Y-83355808D01*
X131897068Y-83605101D01*
X132076392Y-83823608D01*
X132101382Y-83844117D01*
X132078502Y-83871997D01*
X132078501Y-83871998D01*
X132007326Y-83958724D01*
X131936754Y-84090754D01*
X131893298Y-84234015D01*
X131878624Y-84383000D01*
X131882301Y-84420332D01*
X131882300Y-92945078D01*
X131878624Y-92982400D01*
X131882300Y-93019722D01*
X131882300Y-93019732D01*
X131893297Y-93131385D01*
X131912408Y-93194386D01*
X131936754Y-93274646D01*
X132007326Y-93406676D01*
X132046954Y-93454962D01*
X132102299Y-93522401D01*
X132131303Y-93546204D01*
X132661665Y-94076566D01*
X132605038Y-94123038D01*
X132494595Y-94257614D01*
X132412528Y-94411150D01*
X132361992Y-94577746D01*
X132344928Y-94751000D01*
X132344928Y-95676000D01*
X132361992Y-95849254D01*
X132412528Y-96015850D01*
X132494595Y-96169386D01*
X132605038Y-96303962D01*
X132739614Y-96414405D01*
X132893150Y-96496472D01*
X133059746Y-96547008D01*
X133233000Y-96564072D01*
X134133771Y-96564072D01*
X138643936Y-101074238D01*
X138528750Y-101075000D01*
X138370000Y-101233750D01*
X138370000Y-102933000D01*
X139469250Y-102933000D01*
X139628000Y-102774250D01*
X139630139Y-102033152D01*
X139636500Y-102036552D01*
X139636500Y-104076500D01*
X139638940Y-104101276D01*
X139646167Y-104125101D01*
X139657903Y-104147057D01*
X139673697Y-104166303D01*
X139692943Y-104182097D01*
X139714899Y-104193833D01*
X139738724Y-104201060D01*
X139763500Y-104203500D01*
X141922500Y-104203500D01*
X141947276Y-104201060D01*
X141971101Y-104193833D01*
X141993057Y-104182097D01*
X142012303Y-104166303D01*
X142028097Y-104147057D01*
X142039833Y-104125101D01*
X142047060Y-104101276D01*
X142049500Y-104076500D01*
X142049500Y-102144700D01*
X142054928Y-102144700D01*
X142054928Y-104410000D01*
X142067188Y-104534482D01*
X142103498Y-104654180D01*
X142162463Y-104764494D01*
X142241815Y-104861185D01*
X142338506Y-104940537D01*
X142448820Y-104999502D01*
X142568518Y-105035812D01*
X142693000Y-105048072D01*
X144193000Y-105048072D01*
X144317482Y-105035812D01*
X144437180Y-104999502D01*
X144547494Y-104940537D01*
X144644185Y-104861185D01*
X144723537Y-104764494D01*
X144782502Y-104654180D01*
X144818812Y-104534482D01*
X144831072Y-104410000D01*
X144831072Y-104156000D01*
X145744928Y-104156000D01*
X145757188Y-104280482D01*
X145793498Y-104400180D01*
X145852463Y-104510494D01*
X145931815Y-104607185D01*
X146028506Y-104686537D01*
X146138820Y-104745502D01*
X146258518Y-104781812D01*
X146383000Y-104794072D01*
X146847250Y-104791000D01*
X147006000Y-104632250D01*
X147006000Y-102933000D01*
X147260000Y-102933000D01*
X147260000Y-104632250D01*
X147418750Y-104791000D01*
X147883000Y-104794072D01*
X148007482Y-104781812D01*
X148127180Y-104745502D01*
X148237494Y-104686537D01*
X148334185Y-104607185D01*
X148413537Y-104510494D01*
X148472502Y-104400180D01*
X148508812Y-104280482D01*
X148521072Y-104156000D01*
X148518000Y-103091750D01*
X148359250Y-102933000D01*
X147260000Y-102933000D01*
X147006000Y-102933000D01*
X145906750Y-102933000D01*
X145748000Y-103091750D01*
X145744928Y-104156000D01*
X144831072Y-104156000D01*
X144831072Y-101710000D01*
X144818812Y-101585518D01*
X144782502Y-101465820D01*
X144777254Y-101456000D01*
X145744928Y-101456000D01*
X145748000Y-102520250D01*
X145906750Y-102679000D01*
X147006000Y-102679000D01*
X147006000Y-100979750D01*
X147260000Y-100979750D01*
X147260000Y-102679000D01*
X148359250Y-102679000D01*
X148518000Y-102520250D01*
X148521072Y-101456000D01*
X148508812Y-101331518D01*
X148472502Y-101211820D01*
X148413537Y-101101506D01*
X148334185Y-101004815D01*
X148237494Y-100925463D01*
X148127180Y-100866498D01*
X148007482Y-100830188D01*
X147883000Y-100817928D01*
X147418750Y-100821000D01*
X147260000Y-100979750D01*
X147006000Y-100979750D01*
X146847250Y-100821000D01*
X146383000Y-100817928D01*
X146258518Y-100830188D01*
X146138820Y-100866498D01*
X146028506Y-100925463D01*
X145931815Y-101004815D01*
X145852463Y-101101506D01*
X145793498Y-101211820D01*
X145757188Y-101331518D01*
X145744928Y-101456000D01*
X144777254Y-101456000D01*
X144723537Y-101355506D01*
X144644185Y-101258815D01*
X144547494Y-101179463D01*
X144437180Y-101120498D01*
X144317482Y-101084188D01*
X144193000Y-101071928D01*
X144137575Y-101071928D01*
X144077974Y-100960424D01*
X143983001Y-100844699D01*
X143867276Y-100749726D01*
X143735247Y-100679154D01*
X143591986Y-100635697D01*
X143480333Y-100624700D01*
X143443000Y-100621023D01*
X143405667Y-100624700D01*
X140344002Y-100624700D01*
X135371072Y-95651771D01*
X135371072Y-94897700D01*
X135900928Y-94897700D01*
X135900928Y-95676000D01*
X135917992Y-95849254D01*
X135968528Y-96015850D01*
X136050595Y-96169386D01*
X136161038Y-96303962D01*
X136295614Y-96414405D01*
X136449150Y-96496472D01*
X136615746Y-96547008D01*
X136789000Y-96564072D01*
X137689771Y-96564072D01*
X141407600Y-100281902D01*
X141431399Y-100310901D01*
X141460397Y-100334699D01*
X141547123Y-100405874D01*
X141624064Y-100447000D01*
X141679153Y-100476446D01*
X141822414Y-100519903D01*
X141934067Y-100530900D01*
X141934077Y-100530900D01*
X141971400Y-100534576D01*
X142008723Y-100530900D01*
X149066999Y-100530900D01*
X150136098Y-101600000D01*
X148780500Y-101600000D01*
X148763542Y-101601137D01*
X148739313Y-101606864D01*
X148716667Y-101617208D01*
X148696474Y-101631771D01*
X148679510Y-101649993D01*
X148666427Y-101671175D01*
X148657728Y-101694502D01*
X148653747Y-101719078D01*
X148526747Y-103751078D01*
X148528940Y-103783776D01*
X148536167Y-103807601D01*
X148547903Y-103829557D01*
X148563697Y-103848803D01*
X148582943Y-103864597D01*
X148604899Y-103876333D01*
X148628724Y-103883560D01*
X148653500Y-103886000D01*
X150876000Y-103886000D01*
X150900776Y-103883560D01*
X150924601Y-103876333D01*
X150944928Y-103865468D01*
X150944928Y-104156000D01*
X150957188Y-104280482D01*
X150993498Y-104400180D01*
X151052463Y-104510494D01*
X151131815Y-104607185D01*
X151228506Y-104686537D01*
X151338820Y-104745502D01*
X151458518Y-104781812D01*
X151583000Y-104794072D01*
X153083000Y-104794072D01*
X153201332Y-104782418D01*
X153114000Y-104869750D01*
X153110928Y-105934000D01*
X153123188Y-106058482D01*
X153158230Y-106174000D01*
X149551626Y-106174000D01*
X149037603Y-105659981D01*
X149013802Y-105630979D01*
X148898077Y-105536006D01*
X148766048Y-105465434D01*
X148622787Y-105421977D01*
X148511134Y-105410980D01*
X148511125Y-105410980D01*
X148473800Y-105407304D01*
X148436477Y-105410980D01*
X144904781Y-105410980D01*
X144877304Y-105383503D01*
X144853501Y-105354499D01*
X144737776Y-105259526D01*
X144605747Y-105188954D01*
X144462486Y-105145497D01*
X144350833Y-105134500D01*
X144350822Y-105134500D01*
X144313500Y-105130824D01*
X144276178Y-105134500D01*
X133576925Y-105134500D01*
X133539600Y-105130824D01*
X133502275Y-105134500D01*
X133502267Y-105134500D01*
X133390614Y-105145497D01*
X133247353Y-105188954D01*
X133115324Y-105259526D01*
X132999599Y-105354499D01*
X132975801Y-105383497D01*
X132115902Y-106243397D01*
X132086899Y-106267199D01*
X132036392Y-106328743D01*
X131991926Y-106382924D01*
X131944311Y-106472005D01*
X131921354Y-106514954D01*
X131877897Y-106658215D01*
X131866900Y-106769868D01*
X131866900Y-106769878D01*
X131863224Y-106807200D01*
X131866900Y-106844523D01*
X131866901Y-108125168D01*
X131863224Y-108162500D01*
X131866901Y-108199833D01*
X131877898Y-108311486D01*
X131891080Y-108354942D01*
X131921354Y-108454746D01*
X131991926Y-108586776D01*
X132056120Y-108664996D01*
X132086900Y-108702501D01*
X132115898Y-108726299D01*
X132612883Y-109223285D01*
X132531815Y-109289815D01*
X132452463Y-109386506D01*
X132393498Y-109496820D01*
X132357188Y-109616518D01*
X132344928Y-109741000D01*
X132348000Y-110167750D01*
X132506750Y-110326500D01*
X133731000Y-110326500D01*
X133731000Y-110306500D01*
X133985000Y-110306500D01*
X133985000Y-110326500D01*
X135209250Y-110326500D01*
X135219750Y-110316000D01*
X135849928Y-110316000D01*
X135862188Y-110440482D01*
X135898498Y-110560180D01*
X135957463Y-110670494D01*
X136036815Y-110767185D01*
X136133506Y-110846537D01*
X136243820Y-110905502D01*
X136363518Y-110941812D01*
X136488000Y-110954072D01*
X137152250Y-110951000D01*
X137311000Y-110792250D01*
X137311000Y-110043000D01*
X136011750Y-110043000D01*
X135853000Y-110201750D01*
X135849928Y-110316000D01*
X135219750Y-110316000D01*
X135368000Y-110167750D01*
X135371072Y-109741000D01*
X135358812Y-109616518D01*
X135323861Y-109501300D01*
X135851376Y-109501300D01*
X135849928Y-109516000D01*
X135853000Y-109630250D01*
X136011750Y-109789000D01*
X137311000Y-109789000D01*
X137311000Y-109769000D01*
X137565000Y-109769000D01*
X137565000Y-109789000D01*
X137585000Y-109789000D01*
X137585000Y-110043000D01*
X137565000Y-110043000D01*
X137565000Y-110792250D01*
X137723750Y-110951000D01*
X138388000Y-110954072D01*
X138512482Y-110941812D01*
X138632180Y-110905502D01*
X138742494Y-110846537D01*
X138839185Y-110767185D01*
X138918537Y-110670494D01*
X138977502Y-110560180D01*
X138984836Y-110536000D01*
X145652928Y-110536000D01*
X145665188Y-110660482D01*
X145701498Y-110780180D01*
X145750043Y-110871000D01*
X145701498Y-110961820D01*
X145665188Y-111081518D01*
X145652928Y-111206000D01*
X145656000Y-111220250D01*
X145814750Y-111379000D01*
X146939000Y-111379000D01*
X146939000Y-110363000D01*
X147193000Y-110363000D01*
X147193000Y-111379000D01*
X148317250Y-111379000D01*
X148476000Y-111220250D01*
X148479072Y-111206000D01*
X148466812Y-111081518D01*
X148430502Y-110961820D01*
X148381957Y-110871000D01*
X148430502Y-110780180D01*
X148466812Y-110660482D01*
X148479072Y-110536000D01*
X148476000Y-110521750D01*
X148317250Y-110363000D01*
X147193000Y-110363000D01*
X146939000Y-110363000D01*
X145814750Y-110363000D01*
X145656000Y-110521750D01*
X145652928Y-110536000D01*
X138984836Y-110536000D01*
X139012508Y-110444780D01*
X139075668Y-110451001D01*
X139075678Y-110451001D01*
X139113001Y-110454677D01*
X139150324Y-110451001D01*
X141610679Y-110451001D01*
X141648001Y-110454677D01*
X141685323Y-110451001D01*
X141685334Y-110451001D01*
X141796987Y-110440004D01*
X141940248Y-110396547D01*
X142071295Y-110326500D01*
X143129000Y-110326500D01*
X143129000Y-110306500D01*
X143383000Y-110306500D01*
X143383000Y-110326500D01*
X144607250Y-110326500D01*
X144766000Y-110167750D01*
X144769072Y-109741000D01*
X144756812Y-109616518D01*
X144747669Y-109586377D01*
X144845581Y-109506022D01*
X144869384Y-109477018D01*
X145080402Y-109266000D01*
X145652928Y-109266000D01*
X145665188Y-109390482D01*
X145701498Y-109510180D01*
X145750043Y-109601000D01*
X145701498Y-109691820D01*
X145665188Y-109811518D01*
X145652928Y-109936000D01*
X145656000Y-109950250D01*
X145814750Y-110109000D01*
X146939000Y-110109000D01*
X146939000Y-109093000D01*
X145814750Y-109093000D01*
X145656000Y-109251750D01*
X145652928Y-109266000D01*
X145080402Y-109266000D01*
X145661076Y-108685326D01*
X145814750Y-108839000D01*
X146939000Y-108839000D01*
X146939000Y-107830999D01*
X147193000Y-107830999D01*
X147193000Y-108839000D01*
X147213000Y-108839000D01*
X147213000Y-109093000D01*
X147193000Y-109093000D01*
X147193000Y-110109000D01*
X148317250Y-110109000D01*
X148476000Y-109950250D01*
X148479072Y-109936000D01*
X148466812Y-109811518D01*
X148430502Y-109691820D01*
X148381957Y-109601000D01*
X148430502Y-109510180D01*
X148466812Y-109390482D01*
X148479072Y-109266000D01*
X148476000Y-109251750D01*
X148317252Y-109093002D01*
X148476000Y-109093002D01*
X148476000Y-109065801D01*
X151052928Y-111642731D01*
X151052928Y-111806000D01*
X151065188Y-111930482D01*
X151101498Y-112050180D01*
X151160463Y-112160494D01*
X151239815Y-112257185D01*
X151336506Y-112336537D01*
X151446820Y-112395502D01*
X151566518Y-112431812D01*
X151691000Y-112444072D01*
X153241000Y-112444072D01*
X153365482Y-112431812D01*
X153485180Y-112395502D01*
X153595494Y-112336537D01*
X153692185Y-112257185D01*
X153771537Y-112160494D01*
X153830502Y-112050180D01*
X153866812Y-111930482D01*
X153879072Y-111806000D01*
X153879072Y-111206000D01*
X153866812Y-111081518D01*
X153830502Y-110961820D01*
X153781957Y-110871000D01*
X153830502Y-110780180D01*
X153866812Y-110660482D01*
X153879072Y-110536000D01*
X153876000Y-110521750D01*
X153717252Y-110363002D01*
X153876000Y-110363002D01*
X153876000Y-110351400D01*
X158212599Y-110351400D01*
X160470299Y-112609101D01*
X160445084Y-112692223D01*
X160416149Y-112986000D01*
X160445084Y-113279777D01*
X160530775Y-113562264D01*
X160669931Y-113822606D01*
X160857203Y-114050797D01*
X160865265Y-114057414D01*
X160814220Y-114072898D01*
X160703906Y-114131863D01*
X160607215Y-114211215D01*
X160527863Y-114307906D01*
X160468898Y-114418220D01*
X160432588Y-114537918D01*
X160420328Y-114662400D01*
X160423400Y-115240250D01*
X160582150Y-115399000D01*
X161795000Y-115399000D01*
X161795000Y-115379000D01*
X162049000Y-115379000D01*
X162049000Y-115399000D01*
X162069000Y-115399000D01*
X162069000Y-115653000D01*
X162049000Y-115653000D01*
X162049000Y-116865850D01*
X162207750Y-117024600D01*
X162785600Y-117027672D01*
X162910082Y-117015412D01*
X163029780Y-116979102D01*
X163140094Y-116920137D01*
X163236785Y-116840785D01*
X163316137Y-116744094D01*
X163375102Y-116633780D01*
X163390586Y-116582735D01*
X163397203Y-116590797D01*
X163625394Y-116778069D01*
X163885736Y-116917225D01*
X164168223Y-117002916D01*
X164388381Y-117024600D01*
X164535619Y-117024600D01*
X164755777Y-117002916D01*
X165038264Y-116917225D01*
X165298606Y-116778069D01*
X165526797Y-116590797D01*
X165714069Y-116362606D01*
X165733883Y-116325537D01*
X165837961Y-116481302D01*
X166046698Y-116690039D01*
X166292147Y-116854042D01*
X166564875Y-116967010D01*
X166854401Y-117024600D01*
X167149599Y-117024600D01*
X167439125Y-116967010D01*
X167711853Y-116854042D01*
X167957302Y-116690039D01*
X168166039Y-116481302D01*
X168330042Y-116235853D01*
X168443010Y-115963125D01*
X168500600Y-115673599D01*
X168500600Y-115378401D01*
X168443010Y-115088875D01*
X168330042Y-114816147D01*
X168166039Y-114570698D01*
X167957302Y-114361961D01*
X167798719Y-114256000D01*
X167957302Y-114150039D01*
X168166039Y-113941302D01*
X168330042Y-113695853D01*
X168443010Y-113423125D01*
X168500600Y-113133599D01*
X168500600Y-112838401D01*
X168443010Y-112548875D01*
X168330042Y-112276147D01*
X168166039Y-112030698D01*
X167957302Y-111821961D01*
X167711853Y-111657958D01*
X167439125Y-111544990D01*
X167149599Y-111487400D01*
X166854401Y-111487400D01*
X166564875Y-111544990D01*
X166292147Y-111657958D01*
X166137441Y-111761329D01*
X162558000Y-108181889D01*
X162558000Y-87462422D01*
X162561676Y-87425099D01*
X162558000Y-87387776D01*
X162558000Y-87387767D01*
X162547003Y-87276114D01*
X162503546Y-87132853D01*
X162432974Y-87000823D01*
X162361799Y-86914097D01*
X162338001Y-86885099D01*
X162309004Y-86861302D01*
X153625004Y-78177303D01*
X153601201Y-78148299D01*
X153485476Y-78053326D01*
X153353447Y-77982754D01*
X153210186Y-77939297D01*
X153098533Y-77928300D01*
X153098522Y-77928300D01*
X153061200Y-77924624D01*
X153023878Y-77928300D01*
X135618225Y-77928300D01*
X135580900Y-77924624D01*
X135543575Y-77928300D01*
X135543567Y-77928300D01*
X135431914Y-77939297D01*
X135288653Y-77982754D01*
X135156624Y-78053326D01*
X135040899Y-78148299D01*
X135017101Y-78177297D01*
X134021800Y-79172599D01*
X133833420Y-79032963D01*
X133579087Y-78912754D01*
X133445039Y-78872096D01*
X133223000Y-78994085D01*
X133223000Y-80137000D01*
X133243000Y-80137000D01*
X133243000Y-80391000D01*
X133223000Y-80391000D01*
X133223000Y-80411000D01*
X132969000Y-80411000D01*
X132969000Y-80391000D01*
X131825376Y-80391000D01*
X131704091Y-80613040D01*
X131798930Y-80877881D01*
X131943615Y-81119131D01*
X132132586Y-81327519D01*
X132358580Y-81495037D01*
X132434033Y-81530699D01*
X132294899Y-81605068D01*
X132076392Y-81784392D01*
X131897068Y-82002899D01*
X131763818Y-82252192D01*
X131681764Y-82522691D01*
X131654057Y-82804000D01*
X128508747Y-82804000D01*
X128508747Y-79914960D01*
X131704091Y-79914960D01*
X131825376Y-80137000D01*
X132969000Y-80137000D01*
X132969000Y-78994085D01*
X132746961Y-78872096D01*
X132612913Y-78912754D01*
X132358580Y-79032963D01*
X132132586Y-79200481D01*
X131943615Y-79408869D01*
X131798930Y-79650119D01*
X131704091Y-79914960D01*
X128508747Y-79914960D01*
X128508747Y-75841466D01*
X132077168Y-75841466D01*
X132110815Y-75844780D01*
X132245098Y-75831554D01*
X132374221Y-75792385D01*
X132493222Y-75728778D01*
X132597526Y-75643177D01*
X132683127Y-75538873D01*
X132746734Y-75419872D01*
X132785903Y-75290749D01*
X132795815Y-75190113D01*
X132795815Y-75190112D01*
X132799129Y-75156466D01*
X132795815Y-75122819D01*
X132795815Y-73282966D01*
X138400588Y-73282966D01*
X138400587Y-75122819D01*
X138400587Y-75122819D01*
G37*
X138400587Y-75122819D02*
X138397273Y-75156466D01*
X138410499Y-75290749D01*
X138449668Y-75419872D01*
X138513275Y-75538873D01*
X138598876Y-75643177D01*
X138697202Y-75723872D01*
X138703180Y-75728778D01*
X138822181Y-75792385D01*
X138951304Y-75831554D01*
X139085587Y-75844780D01*
X139119234Y-75841466D01*
X160365868Y-75841466D01*
X160399515Y-75844780D01*
X160533798Y-75831554D01*
X160662921Y-75792385D01*
X160781922Y-75728778D01*
X160886226Y-75643177D01*
X160971827Y-75538873D01*
X161035434Y-75419872D01*
X161074603Y-75290749D01*
X161084515Y-75190113D01*
X161084515Y-75190112D01*
X161087829Y-75156466D01*
X161084515Y-75122819D01*
X161084515Y-73376500D01*
X166689300Y-73376500D01*
X166689299Y-75122824D01*
X166685985Y-75156471D01*
X166699211Y-75290754D01*
X166738380Y-75419877D01*
X166801987Y-75538878D01*
X166887588Y-75643182D01*
X166991892Y-75728783D01*
X167110893Y-75792390D01*
X167240016Y-75831559D01*
X167327870Y-75840212D01*
X167374299Y-75844785D01*
X167407946Y-75841471D01*
X171973186Y-75841471D01*
X171973185Y-118779374D01*
X167422911Y-118779374D01*
X167389264Y-118776060D01*
X167355617Y-118779374D01*
X167254981Y-118789286D01*
X167125858Y-118828455D01*
X167006857Y-118892062D01*
X166902553Y-118977663D01*
X166816952Y-119081967D01*
X166753345Y-119200968D01*
X166714176Y-119330091D01*
X166700950Y-119464374D01*
X166704265Y-119498031D01*
X166704264Y-121281034D01*
X161099491Y-121281034D01*
X161099491Y-119498021D01*
X161102805Y-119464374D01*
X161089579Y-119330091D01*
X161050410Y-119200968D01*
X160986803Y-119081967D01*
X160901202Y-118977663D01*
X160796898Y-118892062D01*
X160677897Y-118828455D01*
X160548774Y-118789286D01*
X160448138Y-118779374D01*
X160414491Y-118776060D01*
X160380844Y-118779374D01*
X139072184Y-118779374D01*
X139038537Y-118776060D01*
X139004890Y-118779374D01*
X138904254Y-118789286D01*
X138775131Y-118828455D01*
X138656130Y-118892062D01*
X138551826Y-118977663D01*
X138466225Y-119081967D01*
X138402618Y-119200968D01*
X138363449Y-119330091D01*
X138350223Y-119464374D01*
X138353538Y-119498031D01*
X138353537Y-121281034D01*
X132748276Y-121281034D01*
X132748276Y-119498021D01*
X132751590Y-119464374D01*
X132738364Y-119330091D01*
X132699195Y-119200968D01*
X132635588Y-119081967D01*
X132549987Y-118977663D01*
X132445683Y-118892062D01*
X132326682Y-118828455D01*
X132197559Y-118789286D01*
X132096923Y-118779374D01*
X132063276Y-118776060D01*
X132029629Y-118779374D01*
X128508747Y-118779374D01*
X128508747Y-116389600D01*
X160420328Y-116389600D01*
X160432588Y-116514082D01*
X160468898Y-116633780D01*
X160527863Y-116744094D01*
X160607215Y-116840785D01*
X160703906Y-116920137D01*
X160814220Y-116979102D01*
X160933918Y-117015412D01*
X161058400Y-117027672D01*
X161636250Y-117024600D01*
X161795000Y-116865850D01*
X161795000Y-115653000D01*
X160582150Y-115653000D01*
X160423400Y-115811750D01*
X160420328Y-116389600D01*
X128508747Y-116389600D01*
X128508747Y-111806000D01*
X145652928Y-111806000D01*
X145665188Y-111930482D01*
X145701498Y-112050180D01*
X145760463Y-112160494D01*
X145839815Y-112257185D01*
X145936506Y-112336537D01*
X146046820Y-112395502D01*
X146166518Y-112431812D01*
X146291000Y-112444072D01*
X146780250Y-112441000D01*
X146939000Y-112282250D01*
X146939000Y-111633000D01*
X147193000Y-111633000D01*
X147193000Y-112282250D01*
X147351750Y-112441000D01*
X147841000Y-112444072D01*
X147965482Y-112431812D01*
X148085180Y-112395502D01*
X148195494Y-112336537D01*
X148292185Y-112257185D01*
X148371537Y-112160494D01*
X148430502Y-112050180D01*
X148466812Y-111930482D01*
X148479072Y-111806000D01*
X148476000Y-111791750D01*
X148317250Y-111633000D01*
X147193000Y-111633000D01*
X146939000Y-111633000D01*
X145814750Y-111633000D01*
X145656000Y-111791750D01*
X145652928Y-111806000D01*
X128508747Y-111806000D01*
X128508747Y-111166000D01*
X132344928Y-111166000D01*
X132357188Y-111290482D01*
X132393498Y-111410180D01*
X132452463Y-111520494D01*
X132531815Y-111617185D01*
X132628506Y-111696537D01*
X132738820Y-111755502D01*
X132858518Y-111791812D01*
X132983000Y-111804072D01*
X133572250Y-111801000D01*
X133731000Y-111642250D01*
X133731000Y-110580500D01*
X133985000Y-110580500D01*
X133985000Y-111642250D01*
X134143750Y-111801000D01*
X134733000Y-111804072D01*
X134857482Y-111791812D01*
X134977180Y-111755502D01*
X135087494Y-111696537D01*
X135184185Y-111617185D01*
X135263537Y-111520494D01*
X135322502Y-111410180D01*
X135358812Y-111290482D01*
X135371072Y-111166000D01*
X141742928Y-111166000D01*
X141755188Y-111290482D01*
X141791498Y-111410180D01*
X141850463Y-111520494D01*
X141929815Y-111617185D01*
X142026506Y-111696537D01*
X142136820Y-111755502D01*
X142256518Y-111791812D01*
X142381000Y-111804072D01*
X142970250Y-111801000D01*
X143129000Y-111642250D01*
X143129000Y-110580500D01*
X143383000Y-110580500D01*
X143383000Y-111642250D01*
X143541750Y-111801000D01*
X144131000Y-111804072D01*
X144255482Y-111791812D01*
X144375180Y-111755502D01*
X144485494Y-111696537D01*
X144582185Y-111617185D01*
X144661537Y-111520494D01*
X144720502Y-111410180D01*
X144756812Y-111290482D01*
X144769072Y-111166000D01*
X144766000Y-110739250D01*
X144607250Y-110580500D01*
X143383000Y-110580500D01*
X143129000Y-110580500D01*
X141904750Y-110580500D01*
X141746000Y-110739250D01*
X141742928Y-111166000D01*
X135371072Y-111166000D01*
X135368000Y-110739250D01*
X135209250Y-110580500D01*
X133985000Y-110580500D01*
X133731000Y-110580500D01*
X132506750Y-110580500D01*
X132348000Y-110739250D01*
X132344928Y-111166000D01*
X128508747Y-111166000D01*
X128508747Y-104410000D01*
X136854928Y-104410000D01*
X136867188Y-104534482D01*
X136903498Y-104654180D01*
X136962463Y-104764494D01*
X137041815Y-104861185D01*
X137138506Y-104940537D01*
X137248820Y-104999502D01*
X137368518Y-105035812D01*
X137493000Y-105048072D01*
X137957250Y-105045000D01*
X138116000Y-104886250D01*
X138116000Y-103187000D01*
X138370000Y-103187000D01*
X138370000Y-104886250D01*
X138528750Y-105045000D01*
X138993000Y-105048072D01*
X139117482Y-105035812D01*
X139237180Y-104999502D01*
X139347494Y-104940537D01*
X139444185Y-104861185D01*
X139523537Y-104764494D01*
X139582502Y-104654180D01*
X139618812Y-104534482D01*
X139631072Y-104410000D01*
X139628000Y-103345750D01*
X139469250Y-103187000D01*
X138370000Y-103187000D01*
X138116000Y-103187000D01*
X137016750Y-103187000D01*
X136858000Y-103345750D01*
X136854928Y-104410000D01*
X128508747Y-104410000D01*
X128508747Y-101710000D01*
X136854928Y-101710000D01*
X136858000Y-102774250D01*
X137016750Y-102933000D01*
X138116000Y-102933000D01*
X138116000Y-101233750D01*
X137957250Y-101075000D01*
X137493000Y-101071928D01*
X137368518Y-101084188D01*
X137248820Y-101120498D01*
X137138506Y-101179463D01*
X137041815Y-101258815D01*
X136962463Y-101355506D01*
X136903498Y-101465820D01*
X136867188Y-101585518D01*
X136854928Y-101710000D01*
X128508747Y-101710000D01*
X128508747Y-82804000D01*
X131654057Y-82804000D01*
X131681764Y-83085309D01*
X131763818Y-83355808D01*
X131897068Y-83605101D01*
X132076392Y-83823608D01*
X132101382Y-83844117D01*
X132078502Y-83871997D01*
X132078501Y-83871998D01*
X132007326Y-83958724D01*
X131936754Y-84090754D01*
X131893298Y-84234015D01*
X131878624Y-84383000D01*
X131882301Y-84420332D01*
X131882300Y-92945078D01*
X131878624Y-92982400D01*
X131882300Y-93019722D01*
X131882300Y-93019732D01*
X131893297Y-93131385D01*
X131912408Y-93194386D01*
X131936754Y-93274646D01*
X132007326Y-93406676D01*
X132046954Y-93454962D01*
X132102299Y-93522401D01*
X132131303Y-93546204D01*
X132661665Y-94076566D01*
X132605038Y-94123038D01*
X132494595Y-94257614D01*
X132412528Y-94411150D01*
X132361992Y-94577746D01*
X132344928Y-94751000D01*
X132344928Y-95676000D01*
X132361992Y-95849254D01*
X132412528Y-96015850D01*
X132494595Y-96169386D01*
X132605038Y-96303962D01*
X132739614Y-96414405D01*
X132893150Y-96496472D01*
X133059746Y-96547008D01*
X133233000Y-96564072D01*
X134133771Y-96564072D01*
X138643936Y-101074238D01*
X138528750Y-101075000D01*
X138370000Y-101233750D01*
X138370000Y-102933000D01*
X139469250Y-102933000D01*
X139628000Y-102774250D01*
X139630139Y-102033152D01*
X139636500Y-102036552D01*
X139636500Y-104076500D01*
X139638940Y-104101276D01*
X139646167Y-104125101D01*
X139657903Y-104147057D01*
X139673697Y-104166303D01*
X139692943Y-104182097D01*
X139714899Y-104193833D01*
X139738724Y-104201060D01*
X139763500Y-104203500D01*
X141922500Y-104203500D01*
X141947276Y-104201060D01*
X141971101Y-104193833D01*
X141993057Y-104182097D01*
X142012303Y-104166303D01*
X142028097Y-104147057D01*
X142039833Y-104125101D01*
X142047060Y-104101276D01*
X142049500Y-104076500D01*
X142049500Y-102144700D01*
X142054928Y-102144700D01*
X142054928Y-104410000D01*
X142067188Y-104534482D01*
X142103498Y-104654180D01*
X142162463Y-104764494D01*
X142241815Y-104861185D01*
X142338506Y-104940537D01*
X142448820Y-104999502D01*
X142568518Y-105035812D01*
X142693000Y-105048072D01*
X144193000Y-105048072D01*
X144317482Y-105035812D01*
X144437180Y-104999502D01*
X144547494Y-104940537D01*
X144644185Y-104861185D01*
X144723537Y-104764494D01*
X144782502Y-104654180D01*
X144818812Y-104534482D01*
X144831072Y-104410000D01*
X144831072Y-104156000D01*
X145744928Y-104156000D01*
X145757188Y-104280482D01*
X145793498Y-104400180D01*
X145852463Y-104510494D01*
X145931815Y-104607185D01*
X146028506Y-104686537D01*
X146138820Y-104745502D01*
X146258518Y-104781812D01*
X146383000Y-104794072D01*
X146847250Y-104791000D01*
X147006000Y-104632250D01*
X147006000Y-102933000D01*
X147260000Y-102933000D01*
X147260000Y-104632250D01*
X147418750Y-104791000D01*
X147883000Y-104794072D01*
X148007482Y-104781812D01*
X148127180Y-104745502D01*
X148237494Y-104686537D01*
X148334185Y-104607185D01*
X148413537Y-104510494D01*
X148472502Y-104400180D01*
X148508812Y-104280482D01*
X148521072Y-104156000D01*
X148518000Y-103091750D01*
X148359250Y-102933000D01*
X147260000Y-102933000D01*
X147006000Y-102933000D01*
X145906750Y-102933000D01*
X145748000Y-103091750D01*
X145744928Y-104156000D01*
X144831072Y-104156000D01*
X144831072Y-101710000D01*
X144818812Y-101585518D01*
X144782502Y-101465820D01*
X144777254Y-101456000D01*
X145744928Y-101456000D01*
X145748000Y-102520250D01*
X145906750Y-102679000D01*
X147006000Y-102679000D01*
X147006000Y-100979750D01*
X147260000Y-100979750D01*
X147260000Y-102679000D01*
X148359250Y-102679000D01*
X148518000Y-102520250D01*
X148521072Y-101456000D01*
X148508812Y-101331518D01*
X148472502Y-101211820D01*
X148413537Y-101101506D01*
X148334185Y-101004815D01*
X148237494Y-100925463D01*
X148127180Y-100866498D01*
X148007482Y-100830188D01*
X147883000Y-100817928D01*
X147418750Y-100821000D01*
X147260000Y-100979750D01*
X147006000Y-100979750D01*
X146847250Y-100821000D01*
X146383000Y-100817928D01*
X146258518Y-100830188D01*
X146138820Y-100866498D01*
X146028506Y-100925463D01*
X145931815Y-101004815D01*
X145852463Y-101101506D01*
X145793498Y-101211820D01*
X145757188Y-101331518D01*
X145744928Y-101456000D01*
X144777254Y-101456000D01*
X144723537Y-101355506D01*
X144644185Y-101258815D01*
X144547494Y-101179463D01*
X144437180Y-101120498D01*
X144317482Y-101084188D01*
X144193000Y-101071928D01*
X144137575Y-101071928D01*
X144077974Y-100960424D01*
X143983001Y-100844699D01*
X143867276Y-100749726D01*
X143735247Y-100679154D01*
X143591986Y-100635697D01*
X143480333Y-100624700D01*
X143443000Y-100621023D01*
X143405667Y-100624700D01*
X140344002Y-100624700D01*
X135371072Y-95651771D01*
X135371072Y-94897700D01*
X135900928Y-94897700D01*
X135900928Y-95676000D01*
X135917992Y-95849254D01*
X135968528Y-96015850D01*
X136050595Y-96169386D01*
X136161038Y-96303962D01*
X136295614Y-96414405D01*
X136449150Y-96496472D01*
X136615746Y-96547008D01*
X136789000Y-96564072D01*
X137689771Y-96564072D01*
X141407600Y-100281902D01*
X141431399Y-100310901D01*
X141460397Y-100334699D01*
X141547123Y-100405874D01*
X141624064Y-100447000D01*
X141679153Y-100476446D01*
X141822414Y-100519903D01*
X141934067Y-100530900D01*
X141934077Y-100530900D01*
X141971400Y-100534576D01*
X142008723Y-100530900D01*
X149066999Y-100530900D01*
X150136098Y-101600000D01*
X148780500Y-101600000D01*
X148763542Y-101601137D01*
X148739313Y-101606864D01*
X148716667Y-101617208D01*
X148696474Y-101631771D01*
X148679510Y-101649993D01*
X148666427Y-101671175D01*
X148657728Y-101694502D01*
X148653747Y-101719078D01*
X148526747Y-103751078D01*
X148528940Y-103783776D01*
X148536167Y-103807601D01*
X148547903Y-103829557D01*
X148563697Y-103848803D01*
X148582943Y-103864597D01*
X148604899Y-103876333D01*
X148628724Y-103883560D01*
X148653500Y-103886000D01*
X150876000Y-103886000D01*
X150900776Y-103883560D01*
X150924601Y-103876333D01*
X150944928Y-103865468D01*
X150944928Y-104156000D01*
X150957188Y-104280482D01*
X150993498Y-104400180D01*
X151052463Y-104510494D01*
X151131815Y-104607185D01*
X151228506Y-104686537D01*
X151338820Y-104745502D01*
X151458518Y-104781812D01*
X151583000Y-104794072D01*
X153083000Y-104794072D01*
X153201332Y-104782418D01*
X153114000Y-104869750D01*
X153110928Y-105934000D01*
X153123188Y-106058482D01*
X153158230Y-106174000D01*
X149551626Y-106174000D01*
X149037603Y-105659981D01*
X149013802Y-105630979D01*
X148898077Y-105536006D01*
X148766048Y-105465434D01*
X148622787Y-105421977D01*
X148511134Y-105410980D01*
X148511125Y-105410980D01*
X148473800Y-105407304D01*
X148436477Y-105410980D01*
X144904781Y-105410980D01*
X144877304Y-105383503D01*
X144853501Y-105354499D01*
X144737776Y-105259526D01*
X144605747Y-105188954D01*
X144462486Y-105145497D01*
X144350833Y-105134500D01*
X144350822Y-105134500D01*
X144313500Y-105130824D01*
X144276178Y-105134500D01*
X133576925Y-105134500D01*
X133539600Y-105130824D01*
X133502275Y-105134500D01*
X133502267Y-105134500D01*
X133390614Y-105145497D01*
X133247353Y-105188954D01*
X133115324Y-105259526D01*
X132999599Y-105354499D01*
X132975801Y-105383497D01*
X132115902Y-106243397D01*
X132086899Y-106267199D01*
X132036392Y-106328743D01*
X131991926Y-106382924D01*
X131944311Y-106472005D01*
X131921354Y-106514954D01*
X131877897Y-106658215D01*
X131866900Y-106769868D01*
X131866900Y-106769878D01*
X131863224Y-106807200D01*
X131866900Y-106844523D01*
X131866901Y-108125168D01*
X131863224Y-108162500D01*
X131866901Y-108199833D01*
X131877898Y-108311486D01*
X131891080Y-108354942D01*
X131921354Y-108454746D01*
X131991926Y-108586776D01*
X132056120Y-108664996D01*
X132086900Y-108702501D01*
X132115898Y-108726299D01*
X132612883Y-109223285D01*
X132531815Y-109289815D01*
X132452463Y-109386506D01*
X132393498Y-109496820D01*
X132357188Y-109616518D01*
X132344928Y-109741000D01*
X132348000Y-110167750D01*
X132506750Y-110326500D01*
X133731000Y-110326500D01*
X133731000Y-110306500D01*
X133985000Y-110306500D01*
X133985000Y-110326500D01*
X135209250Y-110326500D01*
X135219750Y-110316000D01*
X135849928Y-110316000D01*
X135862188Y-110440482D01*
X135898498Y-110560180D01*
X135957463Y-110670494D01*
X136036815Y-110767185D01*
X136133506Y-110846537D01*
X136243820Y-110905502D01*
X136363518Y-110941812D01*
X136488000Y-110954072D01*
X137152250Y-110951000D01*
X137311000Y-110792250D01*
X137311000Y-110043000D01*
X136011750Y-110043000D01*
X135853000Y-110201750D01*
X135849928Y-110316000D01*
X135219750Y-110316000D01*
X135368000Y-110167750D01*
X135371072Y-109741000D01*
X135358812Y-109616518D01*
X135323861Y-109501300D01*
X135851376Y-109501300D01*
X135849928Y-109516000D01*
X135853000Y-109630250D01*
X136011750Y-109789000D01*
X137311000Y-109789000D01*
X137311000Y-109769000D01*
X137565000Y-109769000D01*
X137565000Y-109789000D01*
X137585000Y-109789000D01*
X137585000Y-110043000D01*
X137565000Y-110043000D01*
X137565000Y-110792250D01*
X137723750Y-110951000D01*
X138388000Y-110954072D01*
X138512482Y-110941812D01*
X138632180Y-110905502D01*
X138742494Y-110846537D01*
X138839185Y-110767185D01*
X138918537Y-110670494D01*
X138977502Y-110560180D01*
X138984836Y-110536000D01*
X145652928Y-110536000D01*
X145665188Y-110660482D01*
X145701498Y-110780180D01*
X145750043Y-110871000D01*
X145701498Y-110961820D01*
X145665188Y-111081518D01*
X145652928Y-111206000D01*
X145656000Y-111220250D01*
X145814750Y-111379000D01*
X146939000Y-111379000D01*
X146939000Y-110363000D01*
X147193000Y-110363000D01*
X147193000Y-111379000D01*
X148317250Y-111379000D01*
X148476000Y-111220250D01*
X148479072Y-111206000D01*
X148466812Y-111081518D01*
X148430502Y-110961820D01*
X148381957Y-110871000D01*
X148430502Y-110780180D01*
X148466812Y-110660482D01*
X148479072Y-110536000D01*
X148476000Y-110521750D01*
X148317250Y-110363000D01*
X147193000Y-110363000D01*
X146939000Y-110363000D01*
X145814750Y-110363000D01*
X145656000Y-110521750D01*
X145652928Y-110536000D01*
X138984836Y-110536000D01*
X139012508Y-110444780D01*
X139075668Y-110451001D01*
X139075678Y-110451001D01*
X139113001Y-110454677D01*
X139150324Y-110451001D01*
X141610679Y-110451001D01*
X141648001Y-110454677D01*
X141685323Y-110451001D01*
X141685334Y-110451001D01*
X141796987Y-110440004D01*
X141940248Y-110396547D01*
X142071295Y-110326500D01*
X143129000Y-110326500D01*
X143129000Y-110306500D01*
X143383000Y-110306500D01*
X143383000Y-110326500D01*
X144607250Y-110326500D01*
X144766000Y-110167750D01*
X144769072Y-109741000D01*
X144756812Y-109616518D01*
X144747669Y-109586377D01*
X144845581Y-109506022D01*
X144869384Y-109477018D01*
X145080402Y-109266000D01*
X145652928Y-109266000D01*
X145665188Y-109390482D01*
X145701498Y-109510180D01*
X145750043Y-109601000D01*
X145701498Y-109691820D01*
X145665188Y-109811518D01*
X145652928Y-109936000D01*
X145656000Y-109950250D01*
X145814750Y-110109000D01*
X146939000Y-110109000D01*
X146939000Y-109093000D01*
X145814750Y-109093000D01*
X145656000Y-109251750D01*
X145652928Y-109266000D01*
X145080402Y-109266000D01*
X145661076Y-108685326D01*
X145814750Y-108839000D01*
X146939000Y-108839000D01*
X146939000Y-107830999D01*
X147193000Y-107830999D01*
X147193000Y-108839000D01*
X147213000Y-108839000D01*
X147213000Y-109093000D01*
X147193000Y-109093000D01*
X147193000Y-110109000D01*
X148317250Y-110109000D01*
X148476000Y-109950250D01*
X148479072Y-109936000D01*
X148466812Y-109811518D01*
X148430502Y-109691820D01*
X148381957Y-109601000D01*
X148430502Y-109510180D01*
X148466812Y-109390482D01*
X148479072Y-109266000D01*
X148476000Y-109251750D01*
X148317252Y-109093002D01*
X148476000Y-109093002D01*
X148476000Y-109065801D01*
X151052928Y-111642731D01*
X151052928Y-111806000D01*
X151065188Y-111930482D01*
X151101498Y-112050180D01*
X151160463Y-112160494D01*
X151239815Y-112257185D01*
X151336506Y-112336537D01*
X151446820Y-112395502D01*
X151566518Y-112431812D01*
X151691000Y-112444072D01*
X153241000Y-112444072D01*
X153365482Y-112431812D01*
X153485180Y-112395502D01*
X153595494Y-112336537D01*
X153692185Y-112257185D01*
X153771537Y-112160494D01*
X153830502Y-112050180D01*
X153866812Y-111930482D01*
X153879072Y-111806000D01*
X153879072Y-111206000D01*
X153866812Y-111081518D01*
X153830502Y-110961820D01*
X153781957Y-110871000D01*
X153830502Y-110780180D01*
X153866812Y-110660482D01*
X153879072Y-110536000D01*
X153876000Y-110521750D01*
X153717252Y-110363002D01*
X153876000Y-110363002D01*
X153876000Y-110351400D01*
X158212599Y-110351400D01*
X160470299Y-112609101D01*
X160445084Y-112692223D01*
X160416149Y-112986000D01*
X160445084Y-113279777D01*
X160530775Y-113562264D01*
X160669931Y-113822606D01*
X160857203Y-114050797D01*
X160865265Y-114057414D01*
X160814220Y-114072898D01*
X160703906Y-114131863D01*
X160607215Y-114211215D01*
X160527863Y-114307906D01*
X160468898Y-114418220D01*
X160432588Y-114537918D01*
X160420328Y-114662400D01*
X160423400Y-115240250D01*
X160582150Y-115399000D01*
X161795000Y-115399000D01*
X161795000Y-115379000D01*
X162049000Y-115379000D01*
X162049000Y-115399000D01*
X162069000Y-115399000D01*
X162069000Y-115653000D01*
X162049000Y-115653000D01*
X162049000Y-116865850D01*
X162207750Y-117024600D01*
X162785600Y-117027672D01*
X162910082Y-117015412D01*
X163029780Y-116979102D01*
X163140094Y-116920137D01*
X163236785Y-116840785D01*
X163316137Y-116744094D01*
X163375102Y-116633780D01*
X163390586Y-116582735D01*
X163397203Y-116590797D01*
X163625394Y-116778069D01*
X163885736Y-116917225D01*
X164168223Y-117002916D01*
X164388381Y-117024600D01*
X164535619Y-117024600D01*
X164755777Y-117002916D01*
X165038264Y-116917225D01*
X165298606Y-116778069D01*
X165526797Y-116590797D01*
X165714069Y-116362606D01*
X165733883Y-116325537D01*
X165837961Y-116481302D01*
X166046698Y-116690039D01*
X166292147Y-116854042D01*
X166564875Y-116967010D01*
X166854401Y-117024600D01*
X167149599Y-117024600D01*
X167439125Y-116967010D01*
X167711853Y-116854042D01*
X167957302Y-116690039D01*
X168166039Y-116481302D01*
X168330042Y-116235853D01*
X168443010Y-115963125D01*
X168500600Y-115673599D01*
X168500600Y-115378401D01*
X168443010Y-115088875D01*
X168330042Y-114816147D01*
X168166039Y-114570698D01*
X167957302Y-114361961D01*
X167798719Y-114256000D01*
X167957302Y-114150039D01*
X168166039Y-113941302D01*
X168330042Y-113695853D01*
X168443010Y-113423125D01*
X168500600Y-113133599D01*
X168500600Y-112838401D01*
X168443010Y-112548875D01*
X168330042Y-112276147D01*
X168166039Y-112030698D01*
X167957302Y-111821961D01*
X167711853Y-111657958D01*
X167439125Y-111544990D01*
X167149599Y-111487400D01*
X166854401Y-111487400D01*
X166564875Y-111544990D01*
X166292147Y-111657958D01*
X166137441Y-111761329D01*
X162558000Y-108181889D01*
X162558000Y-87462422D01*
X162561676Y-87425099D01*
X162558000Y-87387776D01*
X162558000Y-87387767D01*
X162547003Y-87276114D01*
X162503546Y-87132853D01*
X162432974Y-87000823D01*
X162361799Y-86914097D01*
X162338001Y-86885099D01*
X162309004Y-86861302D01*
X153625004Y-78177303D01*
X153601201Y-78148299D01*
X153485476Y-78053326D01*
X153353447Y-77982754D01*
X153210186Y-77939297D01*
X153098533Y-77928300D01*
X153098522Y-77928300D01*
X153061200Y-77924624D01*
X153023878Y-77928300D01*
X135618225Y-77928300D01*
X135580900Y-77924624D01*
X135543575Y-77928300D01*
X135543567Y-77928300D01*
X135431914Y-77939297D01*
X135288653Y-77982754D01*
X135156624Y-78053326D01*
X135040899Y-78148299D01*
X135017101Y-78177297D01*
X134021800Y-79172599D01*
X133833420Y-79032963D01*
X133579087Y-78912754D01*
X133445039Y-78872096D01*
X133223000Y-78994085D01*
X133223000Y-80137000D01*
X133243000Y-80137000D01*
X133243000Y-80391000D01*
X133223000Y-80391000D01*
X133223000Y-80411000D01*
X132969000Y-80411000D01*
X132969000Y-80391000D01*
X131825376Y-80391000D01*
X131704091Y-80613040D01*
X131798930Y-80877881D01*
X131943615Y-81119131D01*
X132132586Y-81327519D01*
X132358580Y-81495037D01*
X132434033Y-81530699D01*
X132294899Y-81605068D01*
X132076392Y-81784392D01*
X131897068Y-82002899D01*
X131763818Y-82252192D01*
X131681764Y-82522691D01*
X131654057Y-82804000D01*
X128508747Y-82804000D01*
X128508747Y-79914960D01*
X131704091Y-79914960D01*
X131825376Y-80137000D01*
X132969000Y-80137000D01*
X132969000Y-78994085D01*
X132746961Y-78872096D01*
X132612913Y-78912754D01*
X132358580Y-79032963D01*
X132132586Y-79200481D01*
X131943615Y-79408869D01*
X131798930Y-79650119D01*
X131704091Y-79914960D01*
X128508747Y-79914960D01*
X128508747Y-75841466D01*
X132077168Y-75841466D01*
X132110815Y-75844780D01*
X132245098Y-75831554D01*
X132374221Y-75792385D01*
X132493222Y-75728778D01*
X132597526Y-75643177D01*
X132683127Y-75538873D01*
X132746734Y-75419872D01*
X132785903Y-75290749D01*
X132795815Y-75190113D01*
X132795815Y-75190112D01*
X132799129Y-75156466D01*
X132795815Y-75122819D01*
X132795815Y-73282966D01*
X138400588Y-73282966D01*
X138400587Y-75122819D01*
G36*
X152613000Y-110363000D02*
G01*
X152593000Y-110363000D01*
X152593000Y-110383000D01*
X152339000Y-110383000D01*
X152339000Y-110363000D01*
X152319000Y-110363000D01*
X152319000Y-110351400D01*
X152613000Y-110351400D01*
X152613000Y-110363000D01*
X152613000Y-110363000D01*
G37*
X152613000Y-110363000D02*
X152593000Y-110363000D01*
X152593000Y-110383000D01*
X152339000Y-110383000D01*
X152339000Y-110363000D01*
X152319000Y-110363000D01*
X152319000Y-110351400D01*
X152613000Y-110351400D01*
X152613000Y-110363000D01*
G36*
X157347298Y-103441500D02*
G01*
X155956000Y-103441500D01*
X155935008Y-103443247D01*
X155910975Y-103449749D01*
X155888673Y-103460815D01*
X155886412Y-103462559D01*
X155887072Y-103234000D01*
X155874812Y-103109518D01*
X155838502Y-102989820D01*
X155779537Y-102879506D01*
X155700185Y-102782815D01*
X155603494Y-102703463D01*
X155493180Y-102644498D01*
X155373482Y-102608188D01*
X155249000Y-102595928D01*
X154784750Y-102599000D01*
X154626000Y-102757750D01*
X154626000Y-104457000D01*
X154646000Y-104457000D01*
X154646000Y-104711000D01*
X154626000Y-104711000D01*
X154626000Y-104731000D01*
X154372000Y-104731000D01*
X154372000Y-104711000D01*
X154352000Y-104711000D01*
X154352000Y-104457000D01*
X154372000Y-104457000D01*
X154372000Y-102757750D01*
X154213250Y-102599000D01*
X153749000Y-102595928D01*
X153721072Y-102598679D01*
X153721072Y-101456000D01*
X153708812Y-101331518D01*
X153672502Y-101211820D01*
X153613537Y-101101506D01*
X153534185Y-101004815D01*
X153437494Y-100925463D01*
X153327180Y-100866498D01*
X153207482Y-100830188D01*
X153083000Y-100817928D01*
X151583000Y-100817928D01*
X151510746Y-100825044D01*
X149945604Y-99259903D01*
X149921801Y-99230899D01*
X149820423Y-99147700D01*
X153053499Y-99147700D01*
X157347298Y-103441500D01*
X157347298Y-103441500D01*
G37*
X157347298Y-103441500D02*
X155956000Y-103441500D01*
X155935008Y-103443247D01*
X155910975Y-103449749D01*
X155888673Y-103460815D01*
X155886412Y-103462559D01*
X155887072Y-103234000D01*
X155874812Y-103109518D01*
X155838502Y-102989820D01*
X155779537Y-102879506D01*
X155700185Y-102782815D01*
X155603494Y-102703463D01*
X155493180Y-102644498D01*
X155373482Y-102608188D01*
X155249000Y-102595928D01*
X154784750Y-102599000D01*
X154626000Y-102757750D01*
X154626000Y-104457000D01*
X154646000Y-104457000D01*
X154646000Y-104711000D01*
X154626000Y-104711000D01*
X154626000Y-104731000D01*
X154372000Y-104731000D01*
X154372000Y-104711000D01*
X154352000Y-104711000D01*
X154352000Y-104457000D01*
X154372000Y-104457000D01*
X154372000Y-102757750D01*
X154213250Y-102599000D01*
X153749000Y-102595928D01*
X153721072Y-102598679D01*
X153721072Y-101456000D01*
X153708812Y-101331518D01*
X153672502Y-101211820D01*
X153613537Y-101101506D01*
X153534185Y-101004815D01*
X153437494Y-100925463D01*
X153327180Y-100866498D01*
X153207482Y-100830188D01*
X153083000Y-100817928D01*
X151583000Y-100817928D01*
X151510746Y-100825044D01*
X149945604Y-99259903D01*
X149921801Y-99230899D01*
X149820423Y-99147700D01*
X153053499Y-99147700D01*
X157347298Y-103441500D01*
G36*
X140242444Y-88531426D02*
G01*
X140313016Y-88663456D01*
X140384191Y-88750182D01*
X140407990Y-88779181D01*
X140436988Y-88802979D01*
X140721016Y-89087007D01*
X140744819Y-89116011D01*
X140860544Y-89210984D01*
X140992573Y-89281556D01*
X141135834Y-89325013D01*
X141284820Y-89339687D01*
X141322153Y-89336010D01*
X146056209Y-89336010D01*
X151592200Y-94872002D01*
X151615999Y-94901001D01*
X151731724Y-94995974D01*
X151825034Y-95045850D01*
X151816498Y-95061820D01*
X151780188Y-95181518D01*
X151767928Y-95306000D01*
X151767928Y-95956000D01*
X151780188Y-96080482D01*
X151816498Y-96200180D01*
X151875463Y-96310494D01*
X151954815Y-96407185D01*
X152051506Y-96486537D01*
X152161820Y-96545502D01*
X152281518Y-96581812D01*
X152406000Y-96594072D01*
X154106000Y-96594072D01*
X154230482Y-96581812D01*
X154289429Y-96563931D01*
X155518801Y-97793303D01*
X155542599Y-97822301D01*
X155658324Y-97917274D01*
X155790353Y-97987846D01*
X155933614Y-98031303D01*
X156045267Y-98042300D01*
X156045277Y-98042300D01*
X156082600Y-98045976D01*
X156119923Y-98042300D01*
X159441500Y-98042300D01*
X159441500Y-98363681D01*
X159399150Y-98376528D01*
X159245614Y-98458595D01*
X159111038Y-98569038D01*
X159000595Y-98703614D01*
X158918528Y-98857150D01*
X158867992Y-99023746D01*
X158850928Y-99197000D01*
X158850928Y-100447000D01*
X158867992Y-100620254D01*
X158918528Y-100786850D01*
X159000595Y-100940386D01*
X159111038Y-101074962D01*
X159245614Y-101185405D01*
X159399150Y-101267472D01*
X159565746Y-101318008D01*
X159739000Y-101335072D01*
X160055600Y-101335072D01*
X160055600Y-102595928D01*
X158949000Y-102595928D01*
X158824518Y-102608188D01*
X158704820Y-102644498D01*
X158701614Y-102646212D01*
X157390474Y-101335072D01*
X157689000Y-101335072D01*
X157862254Y-101318008D01*
X158028850Y-101267472D01*
X158182386Y-101185405D01*
X158316962Y-101074962D01*
X158427405Y-100940386D01*
X158509472Y-100786850D01*
X158560008Y-100620254D01*
X158577072Y-100447000D01*
X158577072Y-99197000D01*
X158560008Y-99023746D01*
X158509472Y-98857150D01*
X158427405Y-98703614D01*
X158316962Y-98569038D01*
X158182386Y-98458595D01*
X158028850Y-98376528D01*
X157862254Y-98325992D01*
X157689000Y-98308928D01*
X156764000Y-98308928D01*
X156590746Y-98325992D01*
X156424150Y-98376528D01*
X156270614Y-98458595D01*
X156136038Y-98569038D01*
X156025595Y-98703614D01*
X155943528Y-98857150D01*
X155892992Y-99023746D01*
X155889224Y-99062000D01*
X155754302Y-99062000D01*
X154110804Y-97418503D01*
X154087001Y-97389499D01*
X153971276Y-97294526D01*
X153839247Y-97223954D01*
X153695986Y-97180497D01*
X153584333Y-97169500D01*
X153584322Y-97169500D01*
X153547000Y-97165824D01*
X153509678Y-97169500D01*
X149632002Y-97169500D01*
X147582504Y-95120003D01*
X147558701Y-95090999D01*
X147442976Y-94996026D01*
X147378677Y-94961657D01*
X147395502Y-94930180D01*
X147431812Y-94810482D01*
X147444072Y-94686000D01*
X147444072Y-94036000D01*
X147431812Y-93911518D01*
X147395502Y-93791820D01*
X147360320Y-93726000D01*
X147395502Y-93660180D01*
X147431812Y-93540482D01*
X147444072Y-93416000D01*
X147444072Y-92766000D01*
X147431812Y-92641518D01*
X147395502Y-92521820D01*
X147360320Y-92456000D01*
X147395502Y-92390180D01*
X147431812Y-92270482D01*
X147444072Y-92146000D01*
X147441000Y-92106750D01*
X147282250Y-91948000D01*
X146083000Y-91948000D01*
X146083000Y-91968000D01*
X145829000Y-91968000D01*
X145829000Y-91948000D01*
X144629750Y-91948000D01*
X144471000Y-92106750D01*
X144467928Y-92146000D01*
X144480188Y-92270482D01*
X144498546Y-92331000D01*
X143304801Y-92331000D01*
X142930010Y-91956210D01*
X142930010Y-91575153D01*
X142933687Y-91537820D01*
X142929569Y-91496000D01*
X144467928Y-91496000D01*
X144471000Y-91535250D01*
X144629750Y-91694000D01*
X145829000Y-91694000D01*
X145829000Y-91019750D01*
X146083000Y-91019750D01*
X146083000Y-91694000D01*
X147282250Y-91694000D01*
X147441000Y-91535250D01*
X147444072Y-91496000D01*
X147431812Y-91371518D01*
X147395502Y-91251820D01*
X147336537Y-91141506D01*
X147257185Y-91044815D01*
X147160494Y-90965463D01*
X147050180Y-90906498D01*
X146930482Y-90870188D01*
X146806000Y-90857928D01*
X146241750Y-90861000D01*
X146083000Y-91019750D01*
X145829000Y-91019750D01*
X145670250Y-90861000D01*
X145106000Y-90857928D01*
X144981518Y-90870188D01*
X144861820Y-90906498D01*
X144751506Y-90965463D01*
X144654815Y-91044815D01*
X144575463Y-91141506D01*
X144516498Y-91251820D01*
X144480188Y-91371518D01*
X144467928Y-91496000D01*
X142929569Y-91496000D01*
X142919013Y-91388834D01*
X142875556Y-91245573D01*
X142871054Y-91237150D01*
X142804984Y-91113544D01*
X142710011Y-90997819D01*
X142681007Y-90974016D01*
X142396984Y-90689993D01*
X142373181Y-90660989D01*
X142257456Y-90566016D01*
X142125427Y-90495444D01*
X141982166Y-90451987D01*
X141870513Y-90440990D01*
X141870502Y-90440990D01*
X141833180Y-90437314D01*
X141795858Y-90440990D01*
X140143733Y-90440990D01*
X140106410Y-90437314D01*
X140069087Y-90440990D01*
X140069077Y-90440990D01*
X139957424Y-90451987D01*
X139822174Y-90493014D01*
X139814163Y-90495444D01*
X139770500Y-90518783D01*
X139770500Y-88834319D01*
X139812850Y-88821472D01*
X139966386Y-88739405D01*
X140100962Y-88628962D01*
X140211405Y-88494386D01*
X140224039Y-88470750D01*
X140242444Y-88531426D01*
X140242444Y-88531426D01*
G37*
X140242444Y-88531426D02*
X140313016Y-88663456D01*
X140384191Y-88750182D01*
X140407990Y-88779181D01*
X140436988Y-88802979D01*
X140721016Y-89087007D01*
X140744819Y-89116011D01*
X140860544Y-89210984D01*
X140992573Y-89281556D01*
X141135834Y-89325013D01*
X141284820Y-89339687D01*
X141322153Y-89336010D01*
X146056209Y-89336010D01*
X151592200Y-94872002D01*
X151615999Y-94901001D01*
X151731724Y-94995974D01*
X151825034Y-95045850D01*
X151816498Y-95061820D01*
X151780188Y-95181518D01*
X151767928Y-95306000D01*
X151767928Y-95956000D01*
X151780188Y-96080482D01*
X151816498Y-96200180D01*
X151875463Y-96310494D01*
X151954815Y-96407185D01*
X152051506Y-96486537D01*
X152161820Y-96545502D01*
X152281518Y-96581812D01*
X152406000Y-96594072D01*
X154106000Y-96594072D01*
X154230482Y-96581812D01*
X154289429Y-96563931D01*
X155518801Y-97793303D01*
X155542599Y-97822301D01*
X155658324Y-97917274D01*
X155790353Y-97987846D01*
X155933614Y-98031303D01*
X156045267Y-98042300D01*
X156045277Y-98042300D01*
X156082600Y-98045976D01*
X156119923Y-98042300D01*
X159441500Y-98042300D01*
X159441500Y-98363681D01*
X159399150Y-98376528D01*
X159245614Y-98458595D01*
X159111038Y-98569038D01*
X159000595Y-98703614D01*
X158918528Y-98857150D01*
X158867992Y-99023746D01*
X158850928Y-99197000D01*
X158850928Y-100447000D01*
X158867992Y-100620254D01*
X158918528Y-100786850D01*
X159000595Y-100940386D01*
X159111038Y-101074962D01*
X159245614Y-101185405D01*
X159399150Y-101267472D01*
X159565746Y-101318008D01*
X159739000Y-101335072D01*
X160055600Y-101335072D01*
X160055600Y-102595928D01*
X158949000Y-102595928D01*
X158824518Y-102608188D01*
X158704820Y-102644498D01*
X158701614Y-102646212D01*
X157390474Y-101335072D01*
X157689000Y-101335072D01*
X157862254Y-101318008D01*
X158028850Y-101267472D01*
X158182386Y-101185405D01*
X158316962Y-101074962D01*
X158427405Y-100940386D01*
X158509472Y-100786850D01*
X158560008Y-100620254D01*
X158577072Y-100447000D01*
X158577072Y-99197000D01*
X158560008Y-99023746D01*
X158509472Y-98857150D01*
X158427405Y-98703614D01*
X158316962Y-98569038D01*
X158182386Y-98458595D01*
X158028850Y-98376528D01*
X157862254Y-98325992D01*
X157689000Y-98308928D01*
X156764000Y-98308928D01*
X156590746Y-98325992D01*
X156424150Y-98376528D01*
X156270614Y-98458595D01*
X156136038Y-98569038D01*
X156025595Y-98703614D01*
X155943528Y-98857150D01*
X155892992Y-99023746D01*
X155889224Y-99062000D01*
X155754302Y-99062000D01*
X154110804Y-97418503D01*
X154087001Y-97389499D01*
X153971276Y-97294526D01*
X153839247Y-97223954D01*
X153695986Y-97180497D01*
X153584333Y-97169500D01*
X153584322Y-97169500D01*
X153547000Y-97165824D01*
X153509678Y-97169500D01*
X149632002Y-97169500D01*
X147582504Y-95120003D01*
X147558701Y-95090999D01*
X147442976Y-94996026D01*
X147378677Y-94961657D01*
X147395502Y-94930180D01*
X147431812Y-94810482D01*
X147444072Y-94686000D01*
X147444072Y-94036000D01*
X147431812Y-93911518D01*
X147395502Y-93791820D01*
X147360320Y-93726000D01*
X147395502Y-93660180D01*
X147431812Y-93540482D01*
X147444072Y-93416000D01*
X147444072Y-92766000D01*
X147431812Y-92641518D01*
X147395502Y-92521820D01*
X147360320Y-92456000D01*
X147395502Y-92390180D01*
X147431812Y-92270482D01*
X147444072Y-92146000D01*
X147441000Y-92106750D01*
X147282250Y-91948000D01*
X146083000Y-91948000D01*
X146083000Y-91968000D01*
X145829000Y-91968000D01*
X145829000Y-91948000D01*
X144629750Y-91948000D01*
X144471000Y-92106750D01*
X144467928Y-92146000D01*
X144480188Y-92270482D01*
X144498546Y-92331000D01*
X143304801Y-92331000D01*
X142930010Y-91956210D01*
X142930010Y-91575153D01*
X142933687Y-91537820D01*
X142929569Y-91496000D01*
X144467928Y-91496000D01*
X144471000Y-91535250D01*
X144629750Y-91694000D01*
X145829000Y-91694000D01*
X145829000Y-91019750D01*
X146083000Y-91019750D01*
X146083000Y-91694000D01*
X147282250Y-91694000D01*
X147441000Y-91535250D01*
X147444072Y-91496000D01*
X147431812Y-91371518D01*
X147395502Y-91251820D01*
X147336537Y-91141506D01*
X147257185Y-91044815D01*
X147160494Y-90965463D01*
X147050180Y-90906498D01*
X146930482Y-90870188D01*
X146806000Y-90857928D01*
X146241750Y-90861000D01*
X146083000Y-91019750D01*
X145829000Y-91019750D01*
X145670250Y-90861000D01*
X145106000Y-90857928D01*
X144981518Y-90870188D01*
X144861820Y-90906498D01*
X144751506Y-90965463D01*
X144654815Y-91044815D01*
X144575463Y-91141506D01*
X144516498Y-91251820D01*
X144480188Y-91371518D01*
X144467928Y-91496000D01*
X142929569Y-91496000D01*
X142919013Y-91388834D01*
X142875556Y-91245573D01*
X142871054Y-91237150D01*
X142804984Y-91113544D01*
X142710011Y-90997819D01*
X142681007Y-90974016D01*
X142396984Y-90689993D01*
X142373181Y-90660989D01*
X142257456Y-90566016D01*
X142125427Y-90495444D01*
X141982166Y-90451987D01*
X141870513Y-90440990D01*
X141870502Y-90440990D01*
X141833180Y-90437314D01*
X141795858Y-90440990D01*
X140143733Y-90440990D01*
X140106410Y-90437314D01*
X140069087Y-90440990D01*
X140069077Y-90440990D01*
X139957424Y-90451987D01*
X139822174Y-90493014D01*
X139814163Y-90495444D01*
X139770500Y-90518783D01*
X139770500Y-88834319D01*
X139812850Y-88821472D01*
X139966386Y-88739405D01*
X140100962Y-88628962D01*
X140211405Y-88494386D01*
X140224039Y-88470750D01*
X140242444Y-88531426D01*
G36*
X134437068Y-83605101D02*
G01*
X134616392Y-83823608D01*
X134834899Y-84002932D01*
X135084192Y-84136182D01*
X135354691Y-84218236D01*
X135565508Y-84239000D01*
X135706492Y-84239000D01*
X135917309Y-84218236D01*
X136187808Y-84136182D01*
X136298363Y-84077089D01*
X136301997Y-84113984D01*
X136345453Y-84257245D01*
X136416025Y-84389275D01*
X136487200Y-84476001D01*
X136510999Y-84505000D01*
X136539997Y-84528798D01*
X136850196Y-84838997D01*
X136873999Y-84868001D01*
X136989724Y-84962974D01*
X137121753Y-85033546D01*
X137265014Y-85077003D01*
X137376667Y-85088000D01*
X137376677Y-85088000D01*
X137414000Y-85091676D01*
X137451323Y-85088000D01*
X139385199Y-85088000D01*
X140210000Y-85912802D01*
X140210000Y-86255902D01*
X140100962Y-86123038D01*
X139966386Y-86012595D01*
X139812850Y-85930528D01*
X139646254Y-85879992D01*
X139473000Y-85862928D01*
X138548000Y-85862928D01*
X138374746Y-85879992D01*
X138208150Y-85930528D01*
X138054614Y-86012595D01*
X137920038Y-86123038D01*
X137809595Y-86257614D01*
X137727528Y-86411150D01*
X137676992Y-86577746D01*
X137659928Y-86751000D01*
X137659928Y-88001000D01*
X137676992Y-88174254D01*
X137727528Y-88340850D01*
X137809595Y-88494386D01*
X137920038Y-88628962D01*
X138054614Y-88739405D01*
X138208150Y-88821472D01*
X138250501Y-88834319D01*
X138250500Y-90327198D01*
X137689770Y-90887928D01*
X136789000Y-90887928D01*
X136615746Y-90904992D01*
X136449150Y-90955528D01*
X136295614Y-91037595D01*
X136161038Y-91148038D01*
X136050595Y-91282614D01*
X135968528Y-91436150D01*
X135917992Y-91602746D01*
X135900928Y-91776000D01*
X135900928Y-92571900D01*
X135371072Y-92571900D01*
X135371072Y-91776000D01*
X135354008Y-91602746D01*
X135303472Y-91436150D01*
X135221405Y-91282614D01*
X135110962Y-91148038D01*
X134976386Y-91037595D01*
X134822850Y-90955528D01*
X134656254Y-90904992D01*
X134483000Y-90887928D01*
X133402300Y-90887928D01*
X133402300Y-84697801D01*
X133606997Y-84493104D01*
X133636001Y-84469301D01*
X133730974Y-84353576D01*
X133801546Y-84221547D01*
X133845003Y-84078286D01*
X133849942Y-84028139D01*
X133897101Y-84002932D01*
X134115608Y-83823608D01*
X134294932Y-83605101D01*
X134366000Y-83472142D01*
X134437068Y-83605101D01*
X134437068Y-83605101D01*
G37*
X134437068Y-83605101D02*
X134616392Y-83823608D01*
X134834899Y-84002932D01*
X135084192Y-84136182D01*
X135354691Y-84218236D01*
X135565508Y-84239000D01*
X135706492Y-84239000D01*
X135917309Y-84218236D01*
X136187808Y-84136182D01*
X136298363Y-84077089D01*
X136301997Y-84113984D01*
X136345453Y-84257245D01*
X136416025Y-84389275D01*
X136487200Y-84476001D01*
X136510999Y-84505000D01*
X136539997Y-84528798D01*
X136850196Y-84838997D01*
X136873999Y-84868001D01*
X136989724Y-84962974D01*
X137121753Y-85033546D01*
X137265014Y-85077003D01*
X137376667Y-85088000D01*
X137376677Y-85088000D01*
X137414000Y-85091676D01*
X137451323Y-85088000D01*
X139385199Y-85088000D01*
X140210000Y-85912802D01*
X140210000Y-86255902D01*
X140100962Y-86123038D01*
X139966386Y-86012595D01*
X139812850Y-85930528D01*
X139646254Y-85879992D01*
X139473000Y-85862928D01*
X138548000Y-85862928D01*
X138374746Y-85879992D01*
X138208150Y-85930528D01*
X138054614Y-86012595D01*
X137920038Y-86123038D01*
X137809595Y-86257614D01*
X137727528Y-86411150D01*
X137676992Y-86577746D01*
X137659928Y-86751000D01*
X137659928Y-88001000D01*
X137676992Y-88174254D01*
X137727528Y-88340850D01*
X137809595Y-88494386D01*
X137920038Y-88628962D01*
X138054614Y-88739405D01*
X138208150Y-88821472D01*
X138250501Y-88834319D01*
X138250500Y-90327198D01*
X137689770Y-90887928D01*
X136789000Y-90887928D01*
X136615746Y-90904992D01*
X136449150Y-90955528D01*
X136295614Y-91037595D01*
X136161038Y-91148038D01*
X136050595Y-91282614D01*
X135968528Y-91436150D01*
X135917992Y-91602746D01*
X135900928Y-91776000D01*
X135900928Y-92571900D01*
X135371072Y-92571900D01*
X135371072Y-91776000D01*
X135354008Y-91602746D01*
X135303472Y-91436150D01*
X135221405Y-91282614D01*
X135110962Y-91148038D01*
X134976386Y-91037595D01*
X134822850Y-90955528D01*
X134656254Y-90904992D01*
X134483000Y-90887928D01*
X133402300Y-90887928D01*
X133402300Y-84697801D01*
X133606997Y-84493104D01*
X133636001Y-84469301D01*
X133730974Y-84353576D01*
X133801546Y-84221547D01*
X133845003Y-84078286D01*
X133849942Y-84028139D01*
X133897101Y-84002932D01*
X134115608Y-83823608D01*
X134294932Y-83605101D01*
X134366000Y-83472142D01*
X134437068Y-83605101D01*
G36*
X134526330Y-81894133D02*
G01*
X134437068Y-82002899D01*
X134366000Y-82135858D01*
X134294932Y-82002899D01*
X134115608Y-81784392D01*
X133897101Y-81605068D01*
X133757967Y-81530699D01*
X133833420Y-81495037D01*
X134002157Y-81369960D01*
X134526330Y-81894133D01*
X134526330Y-81894133D01*
G37*
X134526330Y-81894133D02*
X134437068Y-82002899D01*
X134366000Y-82135858D01*
X134294932Y-82002899D01*
X134115608Y-81784392D01*
X133897101Y-81605068D01*
X133757967Y-81530699D01*
X133833420Y-81495037D01*
X134002157Y-81369960D01*
X134526330Y-81894133D01*
M02*
